<svg width="103" height="32" viewBox="0 0 103 32" fill="none" xmlns="http://www.w3.org/2000/svg">
<path d="M95.5265 0H7.90492C7.62806 0 7.35438 0 7.07784 0C6.84669 0 6.61713 0.00596775 6.38375 0.00994624C5.87658 0.0162299 5.37062 0.0625587 4.87024 0.148531C4.37057 0.236782 3.88662 0.402765 3.43474 0.64087C2.98328 0.880659 2.57077 1.19221 2.21217 1.56421C1.85176 1.93519 1.55133 2.36395 1.32242 2.83402C1.09263 3.30347 0.93339 3.8066 0.850209 4.32595C0.766071 4.84427 0.720856 5.36857 0.714972 5.89414C0.707938 6.13352 0.707299 6.37389 0.704102 6.61392V25.1272C0.707938 25.3706 0.708577 25.6059 0.715611 25.8493C0.721229 26.3752 0.76623 26.8998 0.850209 27.4185C0.933184 27.9379 1.09244 28.441 1.32242 28.9104C1.55121 29.379 1.85168 29.806 2.21217 30.1749C2.56941 30.5486 2.98219 30.8603 3.43474 31.0983C3.8868 31.3365 4.3708 31.5031 4.87056 31.5923C5.37101 31.6776 5.87693 31.7239 6.38407 31.7308C6.61745 31.7361 6.84701 31.7395 7.07816 31.7395C7.35438 31.7395 7.62806 31.7395 7.90524 31.7395H95.5265C95.7979 31.7395 96.0738 31.7395 96.3453 31.7395C96.5755 31.7395 96.8114 31.7365 97.0416 31.7308C97.5478 31.7243 98.0528 31.678 98.5522 31.5923C99.0536 31.5024 99.5393 31.336 99.9935 31.0983C100.446 30.8602 100.858 30.5485 101.215 30.1749C101.575 29.8046 101.876 29.3779 102.107 28.9104C102.336 28.4407 102.493 27.9376 102.575 27.4185C102.659 26.9002 102.706 26.3761 102.715 25.8506C102.718 25.6073 102.718 25.3719 102.718 25.1285C102.724 24.8437 102.724 24.5609 102.724 24.2718V7.4693C102.724 7.18252 102.724 6.89805 102.718 6.61425C102.718 6.37389 102.718 6.13319 102.715 5.89282C102.706 5.36721 102.659 4.84302 102.575 4.32463C102.493 3.8056 102.335 3.30254 102.107 2.83269C101.641 1.89055 100.902 1.12366 99.9935 0.639875C99.5392 0.403132 99.0535 0.237976 98.5522 0.149857C98.0529 0.0635158 97.5478 0.0171841 97.0416 0.0112724C96.8114 0.00729391 96.5755 0.00298387 96.3453 0.00132617C96.0738 0.00132617 95.7979 0.00132617 95.5265 0.00132617V0Z" fill="#A6A6A6"/>
<path d="M7.08225 31.0536C6.85206 31.0536 6.62762 31.0506 6.39935 31.0453C5.92634 31.039 5.45444 30.9963 4.98751 30.9177C4.55212 30.8397 4.13037 30.6949 3.73617 30.488C3.3456 30.2832 2.98937 30.0145 2.68112 29.6923C2.36832 29.3737 2.10794 29.0041 1.9103 28.5982C1.71038 28.1898 1.57204 27.7521 1.50012 27.3002C1.42247 26.8146 1.38047 26.3237 1.37447 25.8315C1.36968 25.6657 1.36328 25.1164 1.36328 25.1164V6.61402C1.36328 6.61402 1.37 6.07261 1.37447 5.91347C1.38024 5.42209 1.42203 4.93187 1.49948 4.44706C1.57104 3.99411 1.70894 3.55517 1.90839 3.14543C2.10562 2.74023 2.36473 2.37077 2.67569 2.05134C2.9864 1.72809 3.34415 1.45746 3.73585 1.24934C4.12919 1.04329 4.55015 0.899673 4.98463 0.823311C5.45298 0.743789 5.92641 0.700789 6.40095 0.694673L7.08257 0.685059H96.342L97.0316 0.695005C97.5019 0.700803 97.9711 0.743361 98.4352 0.822317C98.874 0.899692 99.2993 1.04439 99.6971 1.25166C100.481 1.67049 101.119 2.33328 101.521 3.14709C101.718 3.55446 101.854 3.9904 101.925 4.4401C102.004 4.92891 102.048 5.423 102.057 5.91844C102.059 6.14024 102.059 6.37862 102.059 6.61468C102.065 6.90842 102.065 7.18791 102.065 7.46972V24.2703C102.065 24.5551 102.065 24.8339 102.059 25.1124C102.059 25.367 102.059 25.6004 102.056 25.8418C102.048 26.3283 102.005 26.8135 101.928 27.2936C101.858 27.7487 101.72 28.1898 101.521 28.6015C101.322 29.0029 101.063 29.3693 100.753 29.687C100.445 30.0111 100.088 30.2815 99.6964 30.488C99.2998 30.6964 98.8751 30.8417 98.4368 30.919C97.9699 30.9981 97.4979 31.0407 97.0249 31.0466C96.8037 31.0519 96.5719 31.0549 96.3471 31.0549H95.5284L7.08225 31.0536Z" fill="black"/>
<path fill-rule="evenodd" clip-rule="evenodd" d="M35.0007 21.4522H38.5412L39.4265 23.9056H41.0621L37.5152 14.7358H36.0446L32.5776 23.9083H34.134L35.0007 21.4522ZM38.0898 20.2052H35.4467L36.3873 17.5655C36.5214 17.1603 36.6454 16.7637 36.7595 16.3756C36.8852 16.8143 37.0131 17.2152 37.1431 17.5781L38.0898 20.2052Z" fill="white"/>
<path fill-rule="evenodd" clip-rule="evenodd" d="M41.7158 17.0765C41.7482 17.6841 41.7644 18.2412 41.7644 18.7478V26.7608L43.2722 26.6282V23.8051C43.6979 23.9595 44.1457 24.0388 44.5967 24.0395C45.1702 24.0517 45.7358 23.9006 46.2324 23.6029C46.7156 23.2989 47.0995 22.8511 47.3341 22.3178C47.6122 21.6757 47.7469 20.9768 47.7283 20.2732C47.7503 19.6245 47.6325 18.9789 47.3833 18.3834C47.0215 17.5012 46.1803 16.9343 45.256 16.9495C44.4767 16.9601 43.7409 17.3235 43.2418 17.9441C43.2217 17.6529 43.185 17.3632 43.1318 17.0765H41.7158ZM46.1898 20.3618C46.2325 21.0223 46.071 21.6798 45.7288 22.2386L45.7291 22.2393C45.4138 22.6717 44.9112 22.9125 44.3892 22.8812C44.1901 22.8808 43.9915 22.8586 43.7968 22.8148C43.6155 22.777 43.4394 22.7164 43.2722 22.6345V18.9756C43.4794 18.7483 43.7179 18.5542 43.98 18.3994C44.2282 18.256 44.508 18.182 44.7921 18.1845C45.192 18.1727 45.572 18.3654 45.8084 18.7001C46.0627 19.044 46.1898 19.5979 46.1898 20.3618Z" fill="white"/>
<path fill-rule="evenodd" clip-rule="evenodd" d="M48.6445 17.0765C48.6769 17.6841 48.6931 18.2412 48.6931 18.7478V26.7608L50.2009 26.6282V23.8051C50.6266 23.9596 51.0744 24.0388 51.5254 24.0395C52.099 24.0517 52.6648 23.9007 53.1614 23.6029C53.6446 23.2989 54.0283 22.8511 54.2628 22.3178C54.5409 21.6757 54.6756 20.9768 54.657 20.2732C54.679 19.6245 54.5611 18.9789 54.312 18.3834C53.9502 17.5012 53.109 16.9343 52.1847 16.9495C51.4054 16.9601 50.6696 17.3235 50.1705 17.9441C50.1505 17.6529 50.1137 17.3632 50.0605 17.0765H48.6445ZM53.1186 20.3618C53.1612 21.0223 52.9997 21.6798 52.6575 22.2386L52.6579 22.2393C52.3425 22.6717 51.8399 22.9125 51.318 22.8812C51.1188 22.8808 50.9202 22.8586 50.7255 22.8149C50.5443 22.777 50.3681 22.7164 50.2009 22.6345V18.9756C50.4081 18.7483 50.6466 18.5541 50.9087 18.3994C51.1568 18.256 51.4365 18.182 51.7205 18.1845C52.1204 18.1726 52.5004 18.3654 52.7368 18.7001C52.9913 19.044 53.1186 19.5979 53.1186 20.3618Z" fill="white"/>
<path d="M57.5018 23.473C56.8569 23.1069 56.3333 22.5478 55.9992 21.8687C55.6339 21.102 55.4538 20.2546 55.4745 19.3997C55.4473 18.4848 55.6557 17.579 56.0785 16.7755C56.4595 16.0779 57.0322 15.5139 57.7237 15.1553C58.4497 14.7868 59.2494 14.6013 60.0576 14.6139C60.5477 14.6116 61.0364 14.6701 61.5132 14.7879C61.9591 14.8981 62.3921 15.0583 62.8045 15.2657L62.4209 16.4685C61.7084 16.0947 60.924 15.8914 60.1257 15.8737C59.5622 15.8605 59.0052 16.0012 58.5108 16.2819C58.0434 16.5601 57.6678 16.9781 57.4334 17.4814C57.1628 18.0786 57.0314 18.7335 57.0497 19.3931C57.0395 19.9876 57.1401 20.5787 57.3461 21.1336C57.5312 21.6244 57.8572 22.0443 58.28 22.3365C58.7611 22.6481 59.3214 22.8025 59.8881 22.7797C60.1827 22.7797 60.4768 22.7543 60.7673 22.7038C61.048 22.6567 61.3238 22.5826 61.5912 22.4824V20.6277H59.5467V19.4126H63.0565V23.2741C62.5473 23.5204 62.0142 23.7093 61.4662 23.8377C60.9226 23.967 60.3666 24.0328 59.8088 24.0336C59.0062 24.0545 58.2119 23.8615 57.5018 23.473Z" fill="white"/>
<path fill-rule="evenodd" clip-rule="evenodd" d="M68.3856 23.0018C68.3979 23.3058 68.4325 23.6083 68.4892 23.9069L69.9062 23.9052C69.8738 23.3312 69.8576 22.9029 69.8576 22.6202V19.9045C69.8841 19.2973 69.7688 18.6924 69.5215 18.1414C69.3234 17.7301 68.9931 17.4033 68.5877 17.2174C68.1263 17.0259 67.632 16.9343 67.1352 16.9482C66.6669 16.9459 66.1999 16.999 65.7432 17.1066C65.3791 17.1869 65.0233 17.3035 64.6808 17.4547L64.919 18.5943C65.2293 18.4471 65.5522 18.3305 65.8836 18.2461C66.2203 18.1531 66.5669 18.1041 66.9153 18.1003C67.3043 18.0732 67.688 18.2063 67.9831 18.4706C68.2314 18.7175 68.3556 19.1426 68.3556 19.746V19.8786C67.9593 19.8194 67.5595 19.7897 67.1592 19.7898C66.0843 19.7898 65.317 19.9871 64.8573 20.3816C64.4004 20.7689 64.145 21.3559 64.1674 21.9674C64.155 22.3652 64.2501 22.7588 64.442 23.1036C64.6176 23.4065 64.8756 23.6487 65.1837 23.7998C65.5075 23.9569 65.8612 24.0362 66.2186 24.0319C66.656 24.0393 67.0886 23.936 67.4789 23.7312C67.8249 23.5529 68.1331 23.3049 68.3856 23.0018ZM68.3549 22.0582C68.1385 22.3036 67.877 22.5017 67.5857 22.6407H67.5866C67.2996 22.7905 66.9834 22.8706 66.662 22.8748C66.4063 22.8888 66.1549 22.8017 65.9587 22.6311C65.7719 22.4315 65.6774 22.158 65.6994 21.8808C65.6864 21.5571 65.8182 21.2453 66.0565 21.0357C66.2946 20.8271 66.7249 20.7228 67.3475 20.7228C67.6842 20.7278 68.0205 20.751 68.3549 20.7924V22.0582Z" fill="white"/>
<path d="M71.1763 22.2672V14.1965L72.6789 14.0698V21.9887C72.6596 22.2052 72.71 22.4222 72.8225 22.6057C72.9392 22.7352 73.1071 22.8018 73.2774 22.7861C73.4119 22.7793 73.5451 22.7559 73.6742 22.7164L73.8516 23.837C73.6829 23.9034 73.5079 23.9511 73.3295 23.9796C73.137 24.0141 72.9421 24.0321 72.7467 24.0333C71.6995 24.0333 71.1761 23.4446 71.1763 22.2672Z" fill="white"/>
<path d="M74.9302 22.2672V14.1965L76.4328 14.0698V21.9887C76.4135 22.2052 76.464 22.4222 76.5764 22.6057C76.6932 22.7352 76.861 22.8017 77.0313 22.7861C77.1658 22.7793 77.299 22.7559 77.4281 22.7164L77.6055 23.837C77.4368 23.9033 77.2618 23.9511 77.0834 23.9796C76.8909 24.0141 76.696 24.0321 76.5006 24.0333C75.4534 24.0333 74.93 23.4446 74.9302 22.2672Z" fill="white"/>
<path fill-rule="evenodd" clip-rule="evenodd" d="M79.5451 20.6912H83.8544L83.8532 20.2734C83.8601 19.7033 83.7575 19.1374 83.5514 18.6088C83.3616 18.1221 83.0394 17.7032 82.6242 17.4029C82.1623 17.0876 81.617 16.9293 81.0643 16.9501C80.508 16.9385 79.9596 17.0877 79.4805 17.3811C79.0133 17.6788 78.6407 18.1124 78.4092 18.628C78.1394 19.2389 78.0081 19.9058 78.0255 20.5774C78.0083 21.2184 78.1324 21.855 78.3884 22.4387C78.6201 22.9419 78.9994 23.3561 79.4719 23.6223C80.0188 23.9128 80.6279 24.0544 81.2421 24.0338C82.1004 24.0477 82.9504 23.8571 83.7266 23.4768L83.3973 22.4069C83.0963 22.5391 82.7848 22.6439 82.4663 22.7202C82.1551 22.7967 81.8365 22.836 81.5167 22.8372C80.2716 22.837 79.6143 22.1217 79.5451 20.6912ZM81.987 18.4715C82.25 18.821 82.39 19.2532 82.3837 19.6965H79.5879C79.6277 19.2457 79.8015 18.8188 80.0854 18.4748C80.3332 18.2033 80.6806 18.0537 81.041 18.0634C81.3991 18.0472 81.7456 18.1967 81.987 18.4715Z" fill="white"/>
<path d="M85.0701 18.7912C85.0701 18.4154 85.0539 17.8435 85.0215 17.0755H86.4314C86.456 17.2654 86.479 17.4922 86.5017 17.7561C86.5244 18.02 86.5395 18.2342 86.5475 18.3986C86.6994 18.1326 86.8719 17.8796 87.0632 17.6424C87.2297 17.4398 87.4304 17.2703 87.6556 17.1424C87.8927 17.0106 88.1584 16.9441 88.4274 16.9491C88.6293 16.9451 88.8308 16.9707 89.0259 17.0251L88.8366 18.3797C88.6779 18.3317 88.5133 18.3084 88.3481 18.3105C88.0184 18.3033 87.6946 18.4017 87.4209 18.5923C87.0905 18.8508 86.8038 19.1645 86.5727 19.5206V23.9069H85.0701V18.7912Z" fill="white"/>
<path d="M89.9292 26.7012C89.745 26.6701 89.5633 26.6246 89.3857 26.5649L89.6604 25.4257C89.7617 25.4552 89.8902 25.4834 90.044 25.5112C90.1891 25.5377 90.336 25.5515 90.4833 25.5524C91.1506 25.5524 91.6515 25.1071 91.9859 24.2166L92.0819 23.9636L89.6521 17.0762H91.2695L92.4908 20.925C92.649 21.4205 92.7771 21.9258 92.8744 22.4379C92.9884 21.9441 93.1226 21.4503 93.2769 20.9565L94.5161 17.0775H96.036L93.6129 23.9964C93.431 24.5536 93.1829 25.0852 92.8744 25.5789C92.6386 25.9527 92.3165 26.2594 91.9373 26.4714C91.5319 26.6761 91.0847 26.7761 90.6339 26.7628C90.3977 26.7634 90.162 26.7428 89.9292 26.7012Z" fill="white"/>
<path d="M32.5703 5.8125H35.2878L35.2114 6.49349H33.3658V7.81236H35.1059V8.45058H33.3658V9.91168H35.3125L35.2453 10.5993H32.571L32.5703 5.8125Z" fill="white"/>
<path d="M37.1635 8.15617L35.729 5.8125H36.6344L37.6066 7.53453L38.6297 5.8125H39.5099L38.0881 8.12666L39.6275 10.5993H38.7093L37.6098 8.71515L36.4908 10.5993H35.6113L37.1635 8.15617Z" fill="white"/>
<path fill-rule="evenodd" clip-rule="evenodd" d="M41.4577 5.81203H40.2144L40.216 10.5982H41.0127V8.75347C41.2121 8.79462 41.4148 8.81681 41.6182 8.81978C41.9143 8.82595 42.2078 8.76093 42.4757 8.6298C42.7164 8.51027 42.9186 8.3208 43.0575 8.08442C43.2003 7.8329 43.2725 7.54503 43.266 7.25324C43.2893 6.83878 43.1154 6.43875 42.8005 6.18236C42.4041 5.90961 41.9323 5.77949 41.4577 5.81203ZM42.4686 7.27324C42.4831 7.52658 42.3896 7.77376 42.2128 7.94925C42.0033 8.12278 41.7386 8.20834 41.4711 8.18896C41.3171 8.18405 41.1637 8.16743 41.012 8.13923V6.44008H41.4452C41.7131 6.42146 41.98 6.48958 42.209 6.63502C42.3929 6.78942 42.4903 7.02888 42.4686 7.27324Z" fill="white"/>
<path d="M44.0518 5.8125H44.8485V9.89046H46.7581L46.691 10.598H44.0518L44.0518 5.8125Z" fill="white"/>
<path fill-rule="evenodd" clip-rule="evenodd" d="M47.1947 9.5195C47.3661 9.87464 47.6357 10.1688 47.9691 10.3643C48.3371 10.5722 48.7516 10.6757 49.1705 10.6643C49.6071 10.6752 50.039 10.5694 50.4248 10.357C50.7768 10.1563 51.0632 9.85135 51.2474 9.48104C51.4475 9.06593 51.5463 8.60623 51.5351 8.14228C51.5442 7.7077 51.4534 7.27711 51.2704 6.88607C51.1014 6.53251 50.8341 6.23955 50.5031 6.04495C50.135 5.83741 49.7205 5.73447 49.3016 5.74656C48.8607 5.73518 48.4244 5.84159 48.0346 6.05556C47.682 6.2554 47.3955 6.5606 47.2123 6.93149C47.0145 7.34205 46.9164 7.7965 46.9265 8.25533C46.9172 8.69289 47.0092 9.12639 47.1947 9.5195ZM50.5354 9.13629C50.4339 9.39702 50.2595 9.62032 50.0347 9.77749C49.792 9.93849 49.508 10.0196 49.2201 10.0102C48.9318 10.0207 48.6476 9.93756 48.4071 9.77252C48.1862 9.61133 48.0165 9.38573 47.9195 9.12436C47.809 8.82849 47.7548 8.51327 47.7596 8.19604C47.7559 7.88693 47.8134 7.58031 47.9288 7.29524C48.0342 7.03242 48.21 6.80644 48.4355 6.6441C48.6788 6.47683 48.9661 6.39203 49.2578 6.40141C49.5516 6.38823 49.8419 6.47204 50.0868 6.64078C50.3018 6.80141 50.465 7.02558 50.5552 7.28397C50.6573 7.57859 50.707 7.88998 50.7019 8.203C50.7072 8.52252 50.6505 8.83988 50.5354 9.13629Z" fill="white"/>
<path fill-rule="evenodd" clip-rule="evenodd" d="M53.8702 5.81191H52.4261L52.4248 10.598H53.2215V8.70063H53.8082L55.0097 10.598H55.9346L54.5157 8.4858C54.6781 8.42108 54.8292 8.32949 54.9633 8.21459C55.1143 8.08519 55.2381 7.92494 55.3268 7.74381C55.4279 7.53654 55.4783 7.30666 55.4736 7.07442C55.4926 6.71273 55.3411 6.36398 55.0672 6.13914C54.7138 5.89654 54.2931 5.78152 53.8702 5.81191ZM54.189 7.95846C54.0292 8.03937 53.8531 8.0796 53.6752 8.07582H53.2257V6.43967H53.8012C54.0258 6.42426 54.2494 6.48223 54.4406 6.60544C54.5942 6.7322 54.6767 6.93005 54.6606 7.13292C54.6642 7.30632 54.6212 7.47735 54.5365 7.62692C54.4535 7.76952 54.333 7.88455 54.189 7.95846Z" fill="white"/>
<path d="M56.5665 5.8125H59.2841L59.2077 6.49349H57.362V7.81236H59.1022V8.45058H57.362V9.91168H59.3068L59.2393 10.5993H56.5649L56.5665 5.8125Z" fill="white"/>
<path d="M62.2437 5.8125H63.0404V10.599H62.2437V5.8125Z" fill="white"/>
<path d="M65.1476 6.50164H63.7163L63.7866 5.81104H67.3805L67.3066 6.50164H65.946V10.5988H65.1492L65.1476 6.50164Z" fill="white"/>
<path fill-rule="evenodd" clip-rule="evenodd" d="M70.0624 9.5195C70.2338 9.87464 70.5034 10.1687 70.8367 10.3643C71.2047 10.5722 71.619 10.6757 72.0379 10.6643C72.4745 10.6752 72.9064 10.5693 73.2921 10.357C73.6442 10.1563 73.9306 9.85132 74.1147 9.48104C74.3148 9.06591 74.4136 8.60622 74.4025 8.14228C74.4115 7.7077 74.3208 7.27712 74.1377 6.88607C73.9687 6.5325 73.7015 6.23953 73.3704 6.04495C73.0023 5.83741 72.5878 5.73447 72.169 5.74656C71.7282 5.73523 71.292 5.84164 70.9023 6.05556C70.5497 6.2554 70.2632 6.5606 70.08 6.93149C69.8822 7.34205 69.7841 7.7965 69.7942 8.25533C69.7849 8.69289 69.8769 9.12639 70.0624 9.5195ZM73.4031 9.13615C73.3015 9.39686 73.1272 9.62015 72.9024 9.77735C72.6593 9.93831 72.375 10.0192 72.0868 10.0094C71.7985 10.0199 71.5143 9.93675 71.2738 9.77171C71.0529 9.61052 70.8832 9.38493 70.7862 9.12355C70.6758 8.82768 70.6215 8.51246 70.6264 8.19523C70.6226 7.88612 70.6802 7.5795 70.7955 7.29444C70.9008 7.03164 71.0766 6.80566 71.3019 6.64329C71.5453 6.476 71.8327 6.3912 72.1245 6.4006C72.4183 6.38743 72.7086 6.47124 72.9535 6.63997C73.1685 6.80061 73.3318 7.02477 73.4219 7.28316C73.524 7.57779 73.5737 7.88917 73.5687 8.2022C73.5742 8.52186 73.5179 8.83944 73.4031 9.13615Z" fill="white"/>
<path d="M75.2936 5.8125H76.207L78.4891 9.52145C78.4699 9.16892 78.4603 8.84378 78.4603 8.54606V5.8125H79.1998V10.599H78.3136L75.9963 6.83066C76.0195 7.25835 76.0313 7.63741 76.0315 7.96785V10.5993H75.292L75.2936 5.8125Z" fill="white"/>
<path d="M12.8661 5.77393C8.85533 5.77393 7.38818 7.29504 7.38818 11.4546V20.2842C7.38818 24.4434 8.85533 25.9648 12.8661 25.9648H21.3777C25.3878 25.9648 26.8585 24.4434 26.8585 20.2842V11.4546C26.8585 7.29504 25.3914 5.77393 21.3806 5.77393H12.8661Z" fill="#C00020"/>
<path fill-rule="evenodd" clip-rule="evenodd" d="M14.1533 17.3824C14.1533 17.8114 13.9478 18.0409 13.5747 18.0409C13.2016 18.0409 12.9928 17.8052 12.9928 17.3642V15.8723H12.4761V17.3818C12.4761 18.1241 12.8739 18.5501 13.5676 18.5501C14.2678 18.5501 14.6697 18.1165 14.6697 17.3599V15.8706H14.1533V17.3824ZM11.244 15.871H11.7603V18.5108H11.244V17.4386H10.0777V18.5104H9.56104V15.8707H10.0777V16.9356H11.244V15.871ZM19.5443 15.8709L20.1223 17.6864L20.686 15.8723H21.2215L20.3365 18.511H19.9052L19.3266 16.7777L18.7476 18.511H18.3201L17.4329 15.8723H17.9822L18.5445 17.6864L19.1226 15.8709H19.5443ZM22.1474 17.3748H23.0867V16.894H22.1487V16.3536H23.5122V15.8725H21.6371V18.509H23.5595V18.0282H22.1487L22.1474 17.3748ZM24.6855 18.5077H24.1759V15.8713H24.6855V18.5077ZM15.6905 17.96L15.4587 18.5097H14.9315L16.0527 15.8713H16.5086L17.6257 18.5097H17.0838L16.8552 17.96H15.6905ZM16.6631 17.4838H15.8823L16.2714 16.5393L16.6631 17.4838Z" fill="white"/>
<path d="M17.1232 12.5098C15.3341 12.5078 13.8843 11.0042 13.8823 9.14893H14.3401C14.3401 10.7429 15.5862 12.035 17.1232 12.035C18.6603 12.035 19.9063 10.7429 19.9063 9.14893H20.3641C20.3622 11.0042 18.9123 12.5078 17.1232 12.5098Z" fill="white"/>
</svg>
