<svg width="91" height="32" viewBox="0 0 91 32" fill="none" xmlns="http://www.w3.org/2000/svg">
<path d="M83.4627 0.000103153H7.2256C6.94771 0.000103153 6.67315 0.000103153 6.39599 0.00169012C6.16398 0.00327709 5.93382 0.00788723 5.69959 0.0117674C5.19072 0.0180373 4.68305 0.064912 4.18098 0.151984C3.67963 0.240951 3.19398 0.40868 2.74045 0.649498C2.28749 0.892353 1.8736 1.20792 1.5138 1.58475C1.15212 1.96051 0.850628 2.39485 0.620922 2.87105C0.390582 3.34631 0.230864 3.85559 0.147283 4.38131C0.0629076 4.90636 0.0175045 5.43747 0.011481 5.96986C0.00444842 6.21315 0.00370575 6.45724 0 6.70055V25.0413C0.00370575 25.2877 0.00444842 25.5264 0.011481 25.7729C0.0175063 26.3052 0.0629094 26.8363 0.147283 27.3613C0.230633 27.8874 0.390361 28.3969 0.620922 28.8724C0.850524 29.347 1.15206 29.7796 1.5138 30.1533C1.87224 30.5318 2.28639 30.8476 2.74045 31.0886C3.19397 31.33 3.67957 31.4988 4.18098 31.5891C4.68313 31.6755 5.19075 31.7224 5.69959 31.7294C5.93382 31.7348 6.16398 31.7379 6.39599 31.7379C6.67314 31.7395 6.94772 31.7395 7.2256 31.7395H83.4627C83.735 31.7395 84.0118 31.7395 84.2841 31.7379C84.5151 31.7379 84.7519 31.7348 84.9828 31.7294C85.4907 31.7227 85.9973 31.6758 86.4984 31.5891C87.0015 31.4981 87.4888 31.3294 87.9445 31.0886C88.3982 30.8474 88.8119 30.5317 89.1701 30.1533C89.5309 29.7781 89.833 29.3459 90.0655 28.8724C90.2943 28.3966 90.4525 27.8871 90.5347 27.3613C90.6192 26.8362 90.6662 26.3053 90.6753 25.7729C90.6783 25.5264 90.6783 25.2877 90.6783 25.0413C90.6842 24.7531 90.6842 24.4664 90.6842 24.1734V7.56687C90.6842 7.27629 90.6842 6.98803 90.6783 6.70055C90.6783 6.45724 90.6783 6.21315 90.6753 5.96983C90.6662 5.43739 90.6192 4.9064 90.5347 4.38128C90.4523 3.85587 90.2941 3.34662 90.0655 2.87102C89.5977 1.91652 88.8559 1.13957 87.9445 0.649427C87.4888 0.409198 87.0014 0.241513 86.4984 0.151912C85.9974 0.0644569 85.4907 0.017566 84.9828 0.0116563C84.7519 0.00778408 84.5151 0.00313426 84.2841 0.00158697C84.0118 0 83.735 0 83.4627 0V0.000103153Z" fill="#A6A6A6"/>
<path d="M6.39972 31.0451C6.16883 31.0451 5.94351 31.042 5.71443 31.0366C5.23987 31.0301 4.76641 30.9869 4.29795 30.9072C3.86114 30.8284 3.43798 30.6819 3.04244 30.4724C2.65052 30.2647 2.29306 29.9924 1.98376 29.6658C1.66997 29.3431 1.40873 28.9687 1.21039 28.5577C1.00986 28.144 0.871086 27.7005 0.798893 27.2427C0.720932 26.7509 0.678751 26.2535 0.672716 25.7549C0.667911 25.5876 0.661621 25.0304 0.661621 25.0304V6.70049C0.661621 6.70049 0.66832 6.15186 0.672754 5.99068C0.678533 5.49292 0.720468 4.99633 0.798196 4.50523C0.870522 4.04621 1.00941 3.60146 1.21004 3.18638C1.40766 2.7756 1.66745 2.40101 1.97934 2.07712C2.29088 1.75016 2.64948 1.4764 3.04206 1.26581C3.4367 1.05703 3.85905 0.911538 4.29499 0.834203C4.76499 0.753717 5.24009 0.710203 5.71629 0.704024L6.40009 0.694336H84.2805L84.9724 0.704413C85.4443 0.710284 85.9151 0.753411 86.3808 0.833426C86.8211 0.911731 87.2479 1.05824 87.647 1.26814C88.4335 1.69253 89.0734 2.36396 89.4772 3.18831C89.6746 3.60053 89.8113 4.04165 89.8827 4.4967C89.9614 4.99184 90.0054 5.49233 90.0145 5.99417C90.0167 6.21889 90.0167 6.46027 90.0167 6.70049C90.0226 6.99804 90.0226 7.28126 90.0226 7.5668V24.1734C90.0226 24.4616 90.0226 24.7429 90.0167 25.0265C90.0167 25.2846 90.0167 25.5209 90.0137 25.7642C90.0049 26.2571 89.9616 26.7487 89.8842 27.2349C89.8135 27.696 89.6754 28.1429 89.475 28.5601C89.2752 28.9667 89.0155 29.3377 88.7053 29.6596C88.3957 29.9879 88.0376 30.2619 87.6448 30.4709C87.2468 30.682 86.8207 30.8291 86.3808 30.9072C85.9123 30.9873 85.4388 31.0306 84.9642 31.0366C84.7423 31.042 84.5099 31.0451 84.2842 31.0451L83.4627 31.0467L6.39972 31.0451Z" fill="black"/>
<path d="M18.7704 16.1083C18.7869 14.7622 19.4609 13.5188 20.5562 12.8137C19.8621 11.7758 18.7412 11.1413 17.5316 11.1016C16.2591 10.9618 15.0254 11.8989 14.3769 11.8989C13.7159 11.8989 12.7174 11.1155 11.6423 11.1387C10.2277 11.1865 8.94086 12.0083 8.25262 13.3032C6.78699 15.9601 7.88022 19.8649 9.28417 22.0125C9.98659 23.0642 10.8075 24.2389 11.8817 24.1972C12.9329 24.1516 13.3254 23.4954 14.5943 23.4954C15.8513 23.4954 16.2196 24.1972 17.3156 24.1708C18.4435 24.1516 19.1542 23.1144 19.832 22.0528C20.3366 21.3035 20.725 20.4753 20.9827 19.599C19.643 19.0057 18.7719 17.6313 18.7704 16.1083Z" fill="white"/>
<path d="M16.7001 9.68918C17.3151 8.91617 17.618 7.92258 17.5447 6.91943C16.6051 7.02276 15.7372 7.49295 15.1139 8.23631C14.4984 8.96973 14.1866 9.92925 14.2472 10.9035C15.1993 10.9138 16.1034 10.4662 16.7001 9.68918Z" fill="white"/>
<path fill-rule="evenodd" clip-rule="evenodd" d="M28.4706 21.5354H32.0577L32.9184 24.1987H34.4636L31.066 14.3452H29.4875L26.0898 24.1987H27.6092L28.4706 21.5354ZM31.6855 20.3064H28.8422L30.2446 15.9841H30.2838L31.6855 20.3064Z" fill="white"/>
<path fill-rule="evenodd" clip-rule="evenodd" d="M38.9381 24.2736C40.6602 24.2736 41.8014 22.8393 41.8014 20.6069C41.8014 18.3806 40.6535 16.9393 38.9122 16.9393C38.0161 16.9091 37.1767 17.397 36.7275 18.2094H36.7016V17.0145H35.3384V26.575H36.7467V23.0167H36.7793C37.2094 23.8342 38.0479 24.3224 38.9381 24.2736ZM38.5406 18.1961C39.6359 18.1961 40.3538 19.1523 40.3538 20.6067C40.3538 22.0744 39.6359 23.0236 38.5406 23.0236C37.4646 23.0236 36.7408 22.0542 36.7408 20.6067C36.7408 19.1724 37.4646 18.1961 38.5406 18.1961Z" fill="white"/>
<path fill-rule="evenodd" clip-rule="evenodd" d="M46.4898 24.2736C48.2119 24.2736 49.3531 22.8393 49.3531 20.6069C49.3531 18.3806 48.2053 16.9393 46.4639 16.9393C45.5679 16.9091 44.7285 17.397 44.2792 18.2094H44.2533V17.0145H42.8901V26.575H44.2985V23.0167H44.3311C44.7612 23.8342 45.5997 24.3224 46.4898 24.2736ZM46.0924 18.1961C47.1877 18.1961 47.9055 19.1523 47.9055 20.6067H47.9055C47.9055 22.0744 47.1877 23.0236 46.0924 23.0236C45.0163 23.0236 44.2925 22.0542 44.2925 20.6067C44.2925 19.1724 45.0163 18.1961 46.0924 18.1961Z" fill="white"/>
<path d="M54.344 21.453C54.4484 22.4302 55.3549 23.0717 56.5938 23.0717C57.7808 23.0717 58.6349 22.4301 58.6349 21.5491C58.6349 20.7843 58.1198 20.3263 56.9002 20.0125L55.6806 19.7048C53.9525 19.2678 53.1503 18.4216 53.1503 17.0485C53.1503 15.3484 54.5653 14.1807 56.5745 14.1807C58.5631 14.1807 59.9263 15.3484 59.9722 17.0485H58.5505C58.4654 16.0652 57.6891 15.4716 56.5545 15.4716C55.42 15.4716 54.6437 16.0722 54.6437 16.9462C54.6437 17.6429 55.1396 18.0528 56.3525 18.3666L57.3893 18.6331C59.3202 19.1112 60.1224 19.9233 60.1224 21.3646C60.1224 23.2081 58.72 24.3626 56.4894 24.3626C54.4024 24.3626 52.9934 23.2352 52.9023 21.4529L54.344 21.453Z" fill="white"/>
<path d="M63.1616 15.3145V17.0146H64.4664V18.1823H63.1616V22.1428C63.1616 22.758 63.4229 23.0447 63.9964 23.0447C64.1513 23.0419 64.3059 23.0305 64.4597 23.0106V24.1714C64.2018 24.2218 63.9397 24.2447 63.6774 24.2396C62.2884 24.2396 61.7466 23.6933 61.7466 22.3V18.1823H60.749V17.0146H61.7466V15.3145H63.1616Z" fill="white"/>
<path fill-rule="evenodd" clip-rule="evenodd" d="M68.4762 16.9263C66.4936 16.9263 65.2222 18.3466 65.2222 20.607C65.2222 22.8735 66.481 24.2877 68.4762 24.2877C70.4722 24.2877 71.731 22.8735 71.731 20.607C71.731 18.3466 70.4655 16.9263 68.4762 16.9263ZM68.4762 18.1412C69.6174 18.1412 70.2961 19.0563 70.2961 20.6069H70.296C70.296 22.1636 69.6174 23.0718 68.4762 23.0718C67.3351 23.0718 66.6572 22.1636 66.6572 20.6069C66.6572 19.0633 67.3351 18.1412 68.4762 18.1412Z" fill="white"/>
<path d="M72.8921 17.0144H74.2353V18.2372H74.2679C74.4552 17.45 75.144 16.9083 75.9182 16.9392C76.0805 16.9387 76.2424 16.9571 76.4007 16.9943V18.3736C76.1959 18.308 75.9821 18.2779 75.768 18.2845C75.3539 18.2669 74.9532 18.4396 74.6711 18.7574C74.3889 19.0752 74.2535 19.5062 74.3004 19.9373V24.1984H72.8921L72.8921 17.0144Z" fill="white"/>
<path fill-rule="evenodd" clip-rule="evenodd" d="M79.9399 24.2877C81.4918 24.2877 82.7048 23.3927 82.8942 22.0886L81.5569 22.0886C81.3002 22.7551 80.6559 23.1661 79.9725 23.099C79.46 23.1188 78.9641 22.9071 78.611 22.5177C78.2579 22.1284 78.0815 21.599 78.1267 21.0642V20.9751H82.9727V20.4698C82.9727 18.2916 81.7789 16.9263 79.8807 16.9263C77.9506 16.9263 76.7051 18.3877 76.7051 20.6411C76.7051 22.8875 77.9439 24.2877 79.9399 24.2877ZM81.5636 19.9444L78.1334 19.9444C78.1322 19.4594 78.3161 18.994 78.6442 18.6516C78.9723 18.3092 79.4174 18.1182 79.8807 18.1211C80.3402 18.1108 80.7831 18.3016 81.1026 18.6478C81.422 18.9939 81.5891 19.4638 81.5636 19.9444Z" fill="white"/>
<path fill-rule="evenodd" clip-rule="evenodd" d="M30.2612 7.5772C29.849 7.12148 29.2634 6.88331 28.6655 6.92823H27.0322V11.6628H28.6655C30.0125 11.6628 30.7932 10.7934 30.7932 9.28078C30.8686 8.65814 30.6733 8.03292 30.2612 7.5772ZM28.5871 10.9933H27.7345V7.59734H28.5871C29.0121 7.57264 29.4254 7.74811 29.714 8.07575C30.0025 8.40339 30.1362 8.84891 30.0783 9.29047C30.1407 9.73386 30.009 10.1831 29.7197 10.5134C29.4304 10.8438 29.0144 11.02 28.5871 10.9933Z" fill="white"/>
<path fill-rule="evenodd" clip-rule="evenodd" d="M32.3436 8.27493C31.8215 8.61415 31.5282 9.23395 31.5867 9.87439C31.5271 10.5155 31.8201 11.1365 32.3427 11.4765C32.8652 11.8164 33.5268 11.8164 34.0493 11.4765C34.5719 11.1365 34.8649 10.5155 34.8053 9.87439C34.8638 9.23395 34.5705 8.61415 34.0484 8.27493C33.5263 7.9357 32.8657 7.9357 32.3436 8.27493ZM33.1971 8.647C33.7803 8.647 34.1126 9.09992 34.1126 9.87441H34.1126C34.1126 10.652 33.7803 11.1045 33.1971 11.1046C32.6118 11.1046 32.2825 10.6551 32.2825 9.87442C32.2825 9.09992 32.6118 8.647 33.1971 8.647Z" fill="white"/>
<path d="M39.0836 11.6628H38.385L37.6797 9.03133H37.6264L36.9241 11.6628H36.2321L35.2915 8.08984H35.9746L36.5859 10.8163H36.6362L37.3378 8.08984H37.9839L38.6854 10.8163H38.7387L39.347 8.08984H40.0205L39.0836 11.6628Z" fill="white"/>
<path d="M40.8115 8.0896H41.4598V8.6572H41.5101C41.6852 8.23929 42.0941 7.98366 42.5285 8.02063C42.8648 7.99415 43.1944 8.12925 43.4242 8.38777C43.6539 8.6463 43.759 9.0002 43.7096 9.34955V11.6626H43.0361V9.52663C43.0361 8.95244 42.7979 8.66689 42.2998 8.66689C42.0717 8.65576 41.8503 8.74951 41.6936 8.92355C41.537 9.09758 41.4608 9.33456 41.485 9.57234V11.6626H40.8115L40.8115 8.0896Z" fill="white"/>
<path d="M44.7824 6.69482H45.4559V11.6626H44.7824V6.69482Z" fill="white"/>
<path fill-rule="evenodd" clip-rule="evenodd" d="M47.1494 8.27493C46.6273 8.61416 46.3339 9.23398 46.3924 9.87445C46.3328 10.5156 46.6259 11.1366 47.1485 11.4765C47.6711 11.8165 48.3326 11.8165 48.8552 11.4765C49.3778 11.1366 49.6708 10.5156 49.6113 9.87445C49.6697 9.23398 49.3764 8.61416 48.8543 8.27493C48.3322 7.9357 47.6715 7.9357 47.1494 8.27493ZM48.0027 8.647C48.5859 8.647 48.9182 9.09992 48.9182 9.87441H48.9182C48.9182 10.652 48.5859 11.1045 48.0027 11.1046C47.4174 11.1046 47.088 10.6551 47.088 9.87442C47.088 9.09992 47.4173 8.647 48.0027 8.647Z" fill="white"/>
<path fill-rule="evenodd" clip-rule="evenodd" d="M51.5895 9.58538C50.7777 9.63808 50.3203 10.0089 50.3203 10.652C50.3215 10.957 50.4457 11.2472 50.6625 11.4509C50.8792 11.6547 51.1681 11.7529 51.4578 11.7213C51.871 11.7413 52.2626 11.527 52.4828 11.1603H52.5361V11.6625H53.1844V9.22119C53.1844 8.46645 52.7018 8.02051 51.8463 8.02051C51.0722 8.02051 50.5209 8.41415 50.452 9.02786H51.104C51.1788 8.77525 51.4393 8.63073 51.8152 8.63073C52.2756 8.63073 52.5139 8.84382 52.5139 9.22119V9.5296L51.5895 9.58538ZM52.5138 10.0479V10.3466C52.4991 10.5744 52.3967 10.7861 52.2302 10.9333C52.0636 11.0806 51.8471 11.1507 51.6302 11.1277C51.2639 11.1277 50.9974 10.9406 50.9974 10.619C50.9974 10.304 51.2106 10.1367 51.6805 10.1037L52.5138 10.0479Z" fill="white"/>
<path fill-rule="evenodd" clip-rule="evenodd" d="M55.4858 8.03035C54.6236 8.03035 54.0693 8.74558 54.0693 9.87458C54.0693 11.0063 54.6177 11.7215 55.4858 11.7215C55.9259 11.7385 56.3387 11.4984 56.5574 11.0981H56.6107V11.6626H57.256V6.69482H56.5826V8.65721H56.5323C56.3289 8.2536 55.9212 8.00935 55.4858 8.03035ZM55.6768 11.0885C55.1062 11.0885 54.765 10.6325 54.765 9.87463H54.765C54.765 9.12299 55.1099 8.66387 55.6768 8.66387C56.2407 8.66387 56.5952 9.13306 56.5952 9.87773C56.5952 10.6259 56.2444 11.0885 55.6768 11.0885Z" fill="white"/>
<path fill-rule="evenodd" clip-rule="evenodd" d="M60.7992 8.27493C60.2771 8.61415 59.9838 9.23395 60.0423 9.87439C59.9827 10.5155 60.2757 11.1365 60.7983 11.4765C61.3208 11.8164 61.9823 11.8164 62.5049 11.4765C63.0274 11.1365 63.3205 10.5155 63.2608 9.87439C63.3193 9.23395 63.0261 8.61415 62.504 8.27493C61.9819 7.9357 61.3213 7.9357 60.7992 8.27493ZM61.6527 8.647C62.2359 8.647 62.5682 9.09992 62.5682 9.87441C62.5682 10.652 62.2359 11.1045 61.6527 11.1046C61.0673 11.1046 60.738 10.6551 60.738 9.87442C60.738 9.09992 61.0673 8.647 61.6527 8.647Z" fill="white"/>
<path d="M64.1646 8.0896H64.8128V8.6572H64.8632C65.0382 8.23929 65.4471 7.98366 65.8815 8.02063C66.2178 7.99415 66.5474 8.12925 66.7772 8.38777C67.007 8.6463 67.112 9.0002 67.0626 9.34955V11.6626H66.3892V9.52663C66.3892 8.95244 66.1509 8.66689 65.6528 8.66689C65.4247 8.65576 65.2033 8.74951 65.0467 8.92355C64.8901 9.09758 64.8138 9.33456 64.838 9.57234V11.6626H64.1646V8.0896Z" fill="white"/>
<path d="M70.8678 7.2002V8.10604H71.6071V8.69999H70.8678V10.5372C70.8678 10.9115 71.015 11.0754 71.3503 11.0754C71.4361 11.0751 71.5219 11.0697 71.6071 11.0591V11.6465C71.4862 11.6691 71.3636 11.6812 71.2408 11.6825C70.4918 11.6825 70.1936 11.4067 70.1936 10.7178V8.69996H69.6519V8.10601H70.1936V7.2002H70.8678Z" fill="white"/>
<path d="M72.5273 6.69482H73.1949V8.66382H73.2482C73.4316 8.24225 73.8477 7.98629 74.2887 8.02376C74.6231 8.00471 74.9482 8.14278 75.1755 8.40037C75.4027 8.65795 75.5085 9.00823 75.4639 9.35579V11.6626H74.7897V9.52974C74.7897 8.95904 74.5359 8.67 74.06 8.67C73.8257 8.64988 73.5949 8.73907 73.4293 8.91372C73.2636 9.08837 73.18 9.33067 73.2008 9.57585V11.6626H72.5274L72.5273 6.69482Z" fill="white"/>
<path fill-rule="evenodd" clip-rule="evenodd" d="M77.9117 11.7315C78.5786 11.8072 79.2015 11.3718 79.3903 10.6978L78.742 10.6978C78.5804 11.0012 78.2597 11.1724 77.9302 11.1309C77.6761 11.1339 77.4326 11.0245 77.2596 10.8296C77.0866 10.6347 77.0001 10.3725 77.0214 10.1073V10.0678H79.431V9.82178C79.431 8.69979 78.8582 8.02057 77.9087 8.02057C77.4525 8.01649 77.0171 8.21988 76.7153 8.57802C76.4134 8.93616 76.2748 9.41383 76.3354 9.88727C76.2731 10.3594 76.4123 10.8363 76.7158 11.1914C77.0194 11.5466 77.4567 11.7441 77.9117 11.7315ZM78.745 9.54635H77.0214C77.0183 9.29996 77.1104 9.06273 77.2768 8.88846C77.4432 8.71419 77.6697 8.61765 77.905 8.62075C78.1372 8.61517 78.3608 8.71252 78.5207 8.88879C78.6807 9.06505 78.7621 9.30386 78.745 9.54635Z" fill="white"/>
</svg>
