<svg width="60" height="60" viewBox="0 0 60 60" fill="none" xmlns="http://www.w3.org/2000/svg">
<g id="graduation-hat-02">
<path id="Icon" d="M43.125 37.5981V29.5261C43.125 29.044 43.125 28.803 43.0505 28.5902C42.9847 28.4021 42.8772 28.2307 42.7359 28.0885C42.5761 27.9277 42.3574 27.8199 41.9199 27.6043L29.5 21.4839M7.7 24.1696V42.4502C7.7 43.449 7.7 43.9485 7.8581 44.3857C7.99786 44.7723 8.22566 45.1222 8.52398 45.4085C8.86144 45.7323 9.32212 45.9404 10.2434 46.3566L27.6834 54.2346C28.3516 54.5365 28.6858 54.6874 29.0339 54.747C29.3423 54.7998 29.6577 54.7998 29.9661 54.747C30.3142 54.6874 30.6484 54.5365 31.3166 54.2346L48.7566 46.3566C49.6779 45.9404 50.1386 45.7323 50.476 45.4085C50.7743 45.1222 51.0021 44.7723 51.1419 44.3857C51.3 43.9485 51.3 43.449 51.3 42.4502V24.1696M2.25 21.4839L28.5251 8.5358C28.8825 8.35964 29.0613 8.27156 29.2488 8.23689C29.4148 8.20619 29.5852 8.20619 29.7512 8.23689C29.9387 8.27156 30.1175 8.35964 30.4749 8.5358L56.75 21.4839L30.4749 34.432C30.1175 34.6082 29.9387 34.6962 29.7512 34.7309C29.5852 34.7616 29.4148 34.7616 29.2488 34.7309C29.0613 34.6962 28.8825 34.6082 28.5251 34.432L2.25 21.4839Z" stroke="#30B0C7" stroke-width="3.5" stroke-linecap="round" stroke-linejoin="round"/>
</g>
</svg>
