<svg width="60" height="60" viewBox="0 0 60 60" fill="none" xmlns="http://www.w3.org/2000/svg">
<g id="building-07">
<path id="Icon" d="M17.5425 30.0798H9.611C8.07926 30.0798 7.31339 30.0798 6.72834 30.3738C6.21371 30.6324 5.79531 31.0451 5.5331 31.5526C5.235 32.1297 5.235 32.885 5.235 34.3958V57.0545M42.1575 30.0798H50.089C51.6207 30.0798 52.3866 30.0798 52.9717 30.3738C53.4863 30.6324 53.9047 31.0451 54.1669 31.5526C54.465 32.1297 54.465 32.885 54.465 34.3958V57.0545M42.1575 57.0545V17.1319C42.1575 14.1105 42.1575 12.5997 41.5613 11.4457C41.0369 10.4306 40.2001 9.60525 39.1708 9.08801C38.0007 8.5 36.469 8.5 33.4055 8.5H26.2945C23.231 8.5 21.6993 8.5 20.5292 9.08801C19.4999 9.60525 18.6631 10.4306 18.1387 11.4457C17.5425 12.5997 17.5425 14.1105 17.5425 17.1319V57.0545M57.2 57.0545H2.5M27.115 19.2899H32.585M27.115 30.0798H32.585M27.115 40.8697H32.585" stroke="#AF52DE" stroke-width="3" stroke-linecap="round" stroke-linejoin="round"/>
</g>
</svg>
