<svg width="60" height="60" viewBox="0 0 60 60" fill="none" xmlns="http://www.w3.org/2000/svg">
<g id="certificate-01">
<path id="Icon" d="M17.1667 50.8966H13.6667C11.0893 50.8966 9 48.8124 9 46.2414V13.6552C9 11.0842 11.0893 9 13.6667 9H46.3333C48.9107 9 51 11.0842 51 13.6552V46.2414C51 48.8124 48.9107 50.8966 46.3333 50.8966H42.8333M30 48.569C33.866 48.569 37 45.4427 37 41.5863C37 37.7298 33.866 34.6035 30 34.6035C26.134 34.6035 23 37.7298 23 41.5863C23 45.4427 26.134 48.569 30 48.569ZM30 48.569L30.05 48.5685L22.6002 56L16.0006 49.4166L23.0459 42.3886M30 48.569L37.4499 56L44.0496 49.4166L37.0043 42.3886M23 18.3104H37M18.3333 26.4569H41.6667" stroke="#FF9500" stroke-width="3" stroke-linecap="round" stroke-linejoin="round"/>
</g>
</svg>
