<svg width="60" height="60" viewBox="0 0 60 60" fill="none" xmlns="http://www.w3.org/2000/svg">
<g id="file-lock-02">
<path id="Icon" d="M51.988 24.45V15.57C51.988 10.9076 51.988 8.57634 51.073 6.79553C50.2681 5.22908 48.9838 3.95552 47.4042 3.15737C45.6084 2.25 43.2576 2.25 38.556 2.25H20.6468C15.9452 2.25 13.5944 2.25 11.7986 3.15737C10.219 3.95552 8.93469 5.22908 8.12984 6.79553C7.21484 8.57634 7.21484 10.9076 7.21484 15.57V44.43C7.21484 49.0924 7.21484 51.4237 8.12984 53.2045C8.93469 54.7709 10.219 56.0445 11.7986 56.8426C13.5944 57.75 15.9452 57.75 20.6468 57.75H25.4039M32.3997 27.225H18.4081M26.8031 38.325H18.4081M40.7947 16.125H18.4081M49.8892 43.875V39.0188C49.8892 36.3367 47.6967 34.1625 44.9922 34.1625C42.2876 34.1625 40.0951 36.3367 40.0951 39.0188V43.875M39.6753 54.975H50.309C51.8762 54.975 52.6598 54.975 53.2584 54.6725C53.7849 54.4065 54.213 53.982 54.4813 53.4598C54.7863 52.8662 54.7863 52.0891 54.7863 50.535V48.315C54.7863 46.7609 54.7863 45.9838 54.4813 45.3902C54.213 44.868 53.7849 44.4435 53.2584 44.1775C52.6598 43.875 51.8762 43.875 50.309 43.875H39.6753C38.1081 43.875 37.3245 43.875 36.7259 44.1775C36.1994 44.4435 35.7713 44.868 35.503 45.3902C35.198 45.9838 35.198 46.7609 35.198 48.315V50.535C35.198 52.0891 35.198 52.8662 35.503 53.4598C35.7713 53.982 36.1994 54.4065 36.7259 54.6725C37.3245 54.975 38.1081 54.975 39.6753 54.975Z" stroke="#34C759" stroke-width="3.5" stroke-linecap="round" stroke-linejoin="round"/>
</g>
</svg>
