<svg width="103" height="32" viewBox="0 0 103 32" fill="none" xmlns="http://www.w3.org/2000/svg">
<rect x="0.684082" width="102.02" height="31.7395" rx="3.82114" fill="black"/>
<path fill-rule="evenodd" clip-rule="evenodd" d="M4.46259 0H98.9253C101.012 0 102.704 1.77628 102.704 3.96743V27.772C102.704 29.9632 101.012 31.7395 98.9253 31.7395H4.46259C2.37578 31.7395 0.684082 29.9632 0.684082 27.772V3.96743C0.684082 1.77628 2.37578 0 4.46259 0ZM102.099 3.96743C102.099 2.12686 100.678 0.634785 98.9252 0.634785H4.46257C2.70964 0.634785 1.28862 2.12686 1.28862 3.96743V27.772C1.28862 29.6126 2.70964 31.1047 4.46257 31.1047H98.9252C100.678 31.1047 102.099 29.6126 102.099 27.772V3.96743Z" fill="#A6A6A6"/>
<path d="M36.5195 8.12566C36.5446 8.71367 36.3398 9.28692 35.9527 9.71264C35.5185 10.1833 34.9138 10.4373 34.2902 10.4109C33.6634 10.4256 33.0588 10.167 32.6201 9.69677C32.1675 9.23558 31.9183 8.59728 31.9324 7.93523C31.9162 7.27043 32.1655 6.62882 32.6201 6.16575C33.3085 5.45948 34.3333 5.25614 35.2197 5.64998C35.4922 5.7676 35.7353 5.94951 35.93 6.18162L35.5295 6.60217C35.2252 6.21729 34.766 6.00557 34.2902 6.03086C33.8132 6.0284 33.3559 6.23009 33.0236 6.58942C32.6914 6.94876 32.5129 7.43471 32.5294 7.93523C32.5193 8.69157 32.9435 9.38004 33.6047 9.68031C34.2659 9.98058 35.0342 9.83368 35.5522 9.30796C35.7852 9.04299 35.9217 8.70017 35.9376 8.3399H34.2902V7.76859H36.4893C36.5062 7.88687 36.5163 8.00611 36.5195 8.12566Z" fill="white"/>
<path d="M39.9804 6.14138H37.94V7.649H39.7991V8.22031H37.94V9.72794H39.9804V10.3151H37.3506V5.5542H39.9804V6.14138Z" fill="white"/>
<path d="M42.4594 10.3151H41.8775V6.14138H40.6079V5.5542H43.7592V6.14138H42.4594V10.3151Z" fill="white"/>
<path d="M45.9809 10.3151V5.5542H46.5628V10.3151H45.9809Z" fill="white"/>
<path d="M49.1474 10.3151H48.5655V6.14138H47.2959V5.5542H50.4094V6.14138H49.1474V10.3151Z" fill="white"/>
<path fill-rule="evenodd" clip-rule="evenodd" d="M54.6485 10.4201C55.2722 10.4201 55.8703 10.1599 56.3111 9.69663C56.7554 9.23139 56.9961 8.5936 56.9761 7.93509C56.9899 7.27774 56.7501 6.64243 56.3111 6.17355C55.8755 5.70239 55.2739 5.44109 54.6485 5.45148C54.022 5.43426 53.4179 5.69665 52.986 6.17355C52.5417 6.6388 52.3009 7.27658 52.321 7.93509C52.3009 8.5936 52.5417 9.23139 52.986 9.69663C53.4268 10.1599 54.0249 10.4201 54.6485 10.4201ZM54.6485 9.84078C54.1855 9.84078 53.7419 9.64601 53.4167 9.3C53.0785 8.93611 52.8957 8.44345 52.9104 7.9352C52.8876 7.43152 53.0592 6.93948 53.3865 6.57041C53.7117 6.2244 54.1553 6.02963 54.6183 6.02963C55.0812 6.02963 55.5249 6.2244 55.8501 6.57041C56.1994 6.92898 56.3933 7.42231 56.3866 7.9352C56.4013 8.44345 56.2185 8.93611 55.8803 9.3C55.5551 9.64601 55.1115 9.84078 54.6485 9.84078Z" fill="white"/>
<path d="M57.7998 10.3151V5.5542H58.5026L60.7093 9.25978V8.33934V5.5542H61.2911V10.3151H60.6866L58.3817 6.43497V7.34748V10.3151H57.7998Z" fill="white"/>
<path fill-rule="evenodd" clip-rule="evenodd" d="M36.7612 18.2977V19.726H40.0258C39.9747 20.3987 39.7083 21.0335 39.2701 21.5272C38.6079 22.2357 37.6907 22.6163 36.7461 22.5746C34.7428 22.5746 33.1187 20.8694 33.1187 18.7659C33.1187 16.6624 34.7428 14.9572 36.7461 14.9572C37.6684 14.9428 38.559 15.3105 39.2248 15.9808L40.1845 14.973C39.2747 14.0281 38.0408 13.5076 36.7612 13.5289C34.9316 13.4541 33.2097 14.4364 32.2738 16.0887C31.3378 17.7411 31.3378 19.7987 32.2738 21.451C33.2097 23.1034 34.9316 24.0856 36.7612 24.0108C38.0687 24.0657 39.3363 23.5316 40.245 22.5429C41.0386 21.6275 41.4614 20.4236 41.4239 19.1864C41.4266 18.8887 41.4038 18.5912 41.3559 18.2977H36.7612ZM45.1344 17.2583C43.3564 17.2627 41.9185 18.7796 41.9226 20.6465C41.9268 22.5133 43.3715 24.0232 45.1495 24.0188C46.9274 24.0144 48.3654 22.4975 48.3612 20.6306C48.3736 19.7295 48.0372 18.8617 47.4289 18.226C46.8205 17.5902 45.9925 17.241 45.1344 17.2583ZM48.9658 20.6465C48.9617 18.7796 50.3996 17.2627 52.1776 17.2583C53.0357 17.241 53.8637 17.5902 54.4721 18.226C55.0804 18.8617 55.4168 19.7295 55.4044 20.6306C55.4086 22.4975 53.9706 24.0144 52.1927 24.0188C50.4147 24.0232 48.97 22.5133 48.9658 20.6465ZM50.2822 21.5181C50.6273 22.2765 51.3789 22.7364 52.1775 22.6778C52.6788 22.6656 53.1541 22.4413 53.4956 22.0558C53.8371 21.6704 54.0158 21.1564 53.9912 20.6306C53.9893 19.79 53.4981 19.0361 52.7528 18.7295C52.0074 18.4228 51.1592 18.6258 50.614 19.2412C50.0687 19.8567 49.9372 20.7596 50.2822 21.5181ZM43.2392 21.5181C43.5842 22.2765 44.3358 22.7364 45.1344 22.6778C45.6357 22.6656 46.111 22.4413 46.4525 22.0558C46.794 21.6704 46.9727 21.1564 46.9481 20.6306C46.9462 19.79 46.455 19.0361 45.7097 18.7295C44.9643 18.4228 44.1161 18.6258 43.5709 19.2412C43.0256 19.8567 42.8941 20.7596 43.2392 21.5181ZM68.2513 17.2583C69.5042 17.3067 70.5986 18.1622 71.0021 19.4086L71.1608 19.7577L66.8608 21.6224C67.1287 22.2684 67.7471 22.6751 68.4176 22.646C69.0636 22.6526 69.6646 22.2994 69.997 21.7177L71.0928 22.5111C70.3122 23.7527 68.8464 24.3066 67.4913 23.8721C66.1362 23.4375 65.2152 22.1182 65.2285 20.6306C65.1763 19.755 65.4716 18.8957 66.0442 18.2569C66.6168 17.618 67.4158 17.2565 68.2513 17.2583ZM66.619 20.5354C66.588 20.0382 66.7495 19.549 67.0667 19.1786C67.3839 18.8082 67.8301 18.5878 68.3042 18.5675C68.8003 18.5342 69.2674 18.8153 69.4906 19.2816L66.619 20.5354ZM64.5408 23.8046H63.1276V13.886H64.5408V23.8046ZM60.8152 18.012H60.7623C60.3282 17.5158 59.711 17.241 59.0695 17.2582C57.3542 17.3455 56.0062 18.8313 56.0062 20.6345C56.0062 22.4377 57.3542 23.9234 59.0695 24.0108C59.7182 24.0244 60.3389 23.7335 60.7623 23.2173H60.8152V23.7013C60.8152 24.9947 60.1577 25.685 59.0997 25.685C58.3769 25.6683 57.7352 25.1951 57.475 24.4868L56.2508 25.0185C56.7141 26.2404 57.8472 27.0357 59.0997 27.0181C60.7547 27.0181 62.1226 25.9945 62.1226 23.5029V17.4566H60.8152V18.012ZM57.362 20.6346C57.362 21.7157 58.1627 22.6105 59.1904 22.6778C59.6815 22.658 60.1436 22.428 60.469 22.0413C60.7945 21.6546 60.9551 21.1448 60.9134 20.6306C60.9507 20.1182 60.7884 19.6119 60.4636 19.2275C60.1388 18.8431 59.6794 18.6135 59.1904 18.5914C58.1627 18.6586 57.362 19.5534 57.362 20.6346ZM77.622 13.8859H74.2365V23.8045H75.6496V20.0434H77.622C78.7198 20.1262 79.7697 19.5582 80.3426 18.5715C80.9156 17.5847 80.9156 16.3446 80.3426 15.3579C79.7697 14.3712 78.7198 13.8031 77.622 13.8859ZM75.6496 18.6471H77.622L77.6522 18.663C78.5454 18.663 79.2694 17.9028 79.2694 16.9649C79.2694 16.0271 78.5454 15.2669 77.6522 15.2669H75.6496V18.6471ZM86.3428 17.2265C85.2909 17.1584 84.3014 17.7543 83.8263 18.7421L85.0732 19.2896C85.3306 18.8023 85.8368 18.5195 86.3655 18.5675C86.7279 18.5231 87.092 18.6333 87.3763 18.8736C87.6604 19.1138 87.8408 19.4638 87.8769 19.845V19.9402C87.4225 19.6894 86.9166 19.5587 86.4033 19.5594C85.0581 19.5594 83.6827 20.3528 83.6827 21.797C83.7096 22.4172 83.9748 22.9994 84.4178 23.4106C84.8607 23.8219 85.4435 24.027 86.033 23.9791C86.755 24.021 87.4424 23.651 87.8315 23.011H87.8769V23.8045H89.2371V19.9878C89.2371 18.2501 87.9827 17.2424 86.373 17.2424L86.3428 17.2265ZM85.0656 21.8208C85.0656 22.4159 85.708 22.6619 86.169 22.6619L86.1992 22.6778C87.0534 22.6599 87.7636 21.982 87.8617 21.0908C87.4696 20.861 87.026 20.7459 86.577 20.7576C85.8667 20.7576 85.0656 21.0273 85.0656 21.8208ZM94.1945 17.4566L92.5773 21.7573H92.532L90.8543 17.4566H89.3429L91.8594 23.4712L90.4236 26.8118H91.935L95.7664 17.4566H94.1945ZM82.9043 23.8046H81.4987V13.886H82.9043V23.8046Z" fill="white"/>
<path d="M8.57364 5.98279C8.33275 6.29547 8.2139 6.69252 8.24113 7.09367V24.6456C8.21542 25.0506 8.34307 25.4498 8.59631 25.7565L8.64921 25.82L17.9897 15.9887V15.7506L8.62654 5.92725L8.57364 5.98279Z" fill="url(#paint0_linear_959_29183)"/>
<path d="M21.0881 19.2659L17.9897 15.9888V15.7507L21.0881 12.4736L21.1561 12.5212L24.8666 14.7271C25.9246 15.354 25.9246 16.3855 24.8666 17.0203L21.1712 19.2262L21.0881 19.2659Z" fill="url(#paint1_linear_959_29183)"/>
<path d="M21.1788 19.2261L17.9898 15.8696L8.57373 25.7565C9.01433 26.1683 9.67195 26.1916 10.138 25.812L21.1788 19.2261Z" fill="url(#paint2_linear_959_29183)"/>
<path d="M21.1788 12.5215L10.138 5.93552C9.67476 5.55046 9.01498 5.57054 8.57373 5.98313L17.9898 15.87L21.1788 12.5215Z" fill="url(#paint3_linear_959_29183)"/>
<path opacity="0.2" d="M21.0881 19.147L10.138 25.6932C9.69077 26.0477 9.07389 26.0477 8.62663 25.6932L8.57373 25.7488L8.62663 25.8123C9.07389 26.1667 9.69077 26.1667 10.138 25.8123L21.1788 19.2263L21.0881 19.147Z" fill="black"/>
<path opacity="0.12" d="M8.57343 25.6452C8.33069 25.3305 8.21174 24.9302 8.24092 24.5264V24.6454C8.21521 25.0504 8.34286 25.4496 8.5961 25.7563L8.649 25.7007L8.57343 25.6452Z" fill="black"/>
<path opacity="0.12" d="M24.8664 16.9012L21.0879 19.1467L21.1559 19.2261L24.8664 17.0122C25.3126 16.8142 25.6199 16.3758 25.6674 15.8696C25.5716 16.3276 25.2743 16.7104 24.8664 16.9012Z" fill="black"/>
<path opacity="0.25" d="M10.138 6.04617L24.8666 14.838C25.2745 15.0287 25.5719 15.4116 25.6677 15.8695C25.6201 15.3634 25.3128 14.925 24.8666 14.7269L10.138 5.93509C9.0876 5.3003 8.24121 5.824 8.24121 7.09358V7.2126C8.24121 5.94302 9.0876 5.41932 10.138 6.04617Z" fill="white"/>
<defs>
<linearGradient id="paint0_linear_959_29183" x1="13.8946" y1="-6.02173" x2="-1.18572" y2="-2.21603" gradientUnits="userSpaceOnUse">
<stop stop-color="#00A0FF"/>
<stop offset="0.01" stop-color="#00A1FF"/>
<stop offset="0.26" stop-color="#00BEFF"/>
<stop offset="0.51" stop-color="#00D2FF"/>
<stop offset="0.76" stop-color="#00DFFF"/>
<stop offset="1" stop-color="#00E3FF"/>
</linearGradient>
<linearGradient id="paint1_linear_959_29183" x1="26.2496" y1="7.77594" x2="7.96915" y2="7.77594" gradientUnits="userSpaceOnUse">
<stop stop-color="#FFE000"/>
<stop offset="0.41" stop-color="#FFBD00"/>
<stop offset="0.78" stop-color="#FFA500"/>
<stop offset="1" stop-color="#FF9C00"/>
</linearGradient>
<linearGradient id="paint2_linear_959_29183" x1="8.30246" y1="10.7194" x2="-4.64739" y2="31.4358" gradientUnits="userSpaceOnUse">
<stop stop-color="#FF3A44"/>
<stop offset="1" stop-color="#C31162"/>
</linearGradient>
<linearGradient id="paint3_linear_959_29183" x1="1.21958" y1="3.24475" x2="6.99763" y2="12.5005" gradientUnits="userSpaceOnUse">
<stop stop-color="#32A071"/>
<stop offset="0.07" stop-color="#2DA771"/>
<stop offset="0.48" stop-color="#15CF74"/>
<stop offset="0.8" stop-color="#06E775"/>
<stop offset="1" stop-color="#00F076"/>
</linearGradient>
</defs>
</svg>
