<svg width="102" height="19" viewBox="0 0 102 19" fill="none" xmlns="http://www.w3.org/2000/svg">
<path d="M36.5214 6.48319C36.5214 6.77431 36.4869 7.04038 36.4212 7.28142C36.3523 7.52246 36.2396 7.72906 36.0831 7.90436C35.9235 8.07652 35.7106 8.21113 35.4445 8.30817C35.1785 8.40521 34.8466 8.45216 34.446 8.45216C34.3395 8.45216 34.2394 8.44903 34.1486 8.43964C34.0578 8.43338 33.967 8.42086 33.8762 8.40521C33.7886 8.38956 33.6947 8.37078 33.5976 8.35199L33.2658 8.26747L33.1844 7.19064C33.4067 7.25638 33.6102 7.30646 33.798 7.33464C33.9858 7.36281 34.1736 7.38159 34.3646 7.38159C34.5211 7.38159 34.6588 7.37533 34.7778 7.36281C34.8967 7.35029 34.9969 7.32211 35.0814 7.27829C35.1659 7.23447 35.2317 7.17186 35.2849 7.09047C35.335 7.00908 35.3694 6.90265 35.3851 6.77118H35.2567C34.8686 6.77118 34.5054 6.73048 34.1705 6.64909C33.8324 6.5677 33.5413 6.43936 33.2909 6.26719C33.0404 6.09503 32.8432 5.87277 32.7024 5.60043C32.5584 5.32809 32.4895 5.00254 32.4895 4.62064C32.4895 4.28569 32.5584 3.98518 32.6961 3.7191C32.8338 3.45616 33.0248 3.23077 33.269 3.04921C33.5131 2.86765 33.8074 2.72366 34.1454 2.62662C34.4835 2.52645 34.856 2.47949 35.2598 2.47949H36.537L36.5276 6.48632L36.5214 6.48319ZM33.6133 4.62064C33.6133 4.79907 33.6477 4.95558 33.7135 5.09019C33.7792 5.22479 33.8731 5.33748 33.9921 5.42826C34.111 5.51904 34.2487 5.58791 34.4084 5.63487C34.568 5.68182 34.7371 5.70373 34.9218 5.70373H35.3976V3.5438H34.9218C34.7559 3.5438 34.5931 3.56885 34.4334 3.61893C34.2738 3.66902 34.1329 3.74102 34.014 3.83493C33.8919 3.92884 33.7948 4.04153 33.7229 4.173C33.6509 4.30448 33.6133 4.4516 33.6133 4.61438V4.62064Z" fill="#1D1D1B"/>
<path d="M42.4441 6.77132C42.2031 6.77132 41.9808 6.75879 41.7867 6.73688C41.5926 6.71497 41.4079 6.6774 41.242 6.62732C41.0761 6.57723 40.9227 6.5115 40.785 6.43324C40.6473 6.35498 40.5158 6.25794 40.3937 6.14838C40.1934 5.96995 40.0556 5.74144 39.9743 5.45658C39.8929 5.17485 39.8522 4.87746 39.8522 4.56756V3.12448H40.9822V4.43609C40.9822 4.6646 41.0073 4.85868 41.0605 5.01833C41.1106 5.17798 41.1982 5.30945 41.3234 5.41275C41.4643 5.52544 41.6396 5.60057 41.8493 5.64127C42.0591 5.68196 42.2844 5.70074 42.5286 5.70074H44.7887V2.4765H45.9188V6.77132H42.4441ZM42.491 2.08834C42.3658 2.18225 42.2187 2.2292 42.0465 2.2292C41.8744 2.2292 41.7272 2.18225 41.602 2.08834C41.4768 1.99443 41.4173 1.85669 41.4173 1.6814C41.4173 1.51862 41.4768 1.38715 41.5989 1.28697C41.721 1.1868 41.8681 1.13672 42.0465 1.13672C42.225 1.13672 42.3721 1.1868 42.4942 1.28697C42.6163 1.38715 42.6757 1.51862 42.6757 1.6814C42.6757 1.85983 42.6131 1.99443 42.491 2.08834ZM44.244 2.08834C44.1188 2.18225 43.9717 2.2292 43.7995 2.2292C43.6274 2.2292 43.4802 2.18225 43.355 2.08834C43.2298 1.99443 43.1703 1.85669 43.1703 1.6814C43.1703 1.51862 43.2298 1.38715 43.3519 1.28697C43.474 1.1868 43.6211 1.13672 43.7995 1.13672C43.9779 1.13672 44.1345 1.1868 44.2503 1.28697C44.3692 1.38715 44.4287 1.51862 44.4287 1.6814C44.4287 1.85983 44.3661 1.99443 44.244 2.08834Z" fill="#1D1D1B"/>
<path d="M47.459 0.582764H48.589V6.77143H47.459V0.582764Z" fill="#1D1D1B"/>
<path d="M49.4778 5.70393H52.2982V4.53632C52.2982 4.38293 52.2794 4.25146 52.245 4.13564C52.2106 4.01982 52.1542 3.91965 52.0791 3.83513C52.0102 3.74748 51.9132 3.67861 51.7911 3.62539C51.669 3.57218 51.5375 3.54401 51.3904 3.54401H50.9052V2.47656H51.2777C51.644 2.47656 51.9633 2.52039 52.2387 2.61117C52.5142 2.70195 52.7521 2.84594 52.9587 3.04941C53.1309 3.22158 53.253 3.4407 53.3218 3.70991C53.3907 3.97912 53.4283 4.26711 53.4283 4.58328V6.77451H49.4778V5.70706V5.70393Z" fill="#1D1D1B"/>
<path d="M58.3243 5.70393H59.0756V6.77138H58.3087C58.2868 7.0218 58.2367 7.24719 58.1553 7.45379C58.0739 7.66039 57.955 7.83569 57.7922 7.98282C57.6294 8.12994 57.4228 8.24576 57.1693 8.32715C56.9157 8.40854 56.6089 8.44923 56.2489 8.44923C56.1425 8.44923 56.0423 8.4461 55.9516 8.43671C55.8608 8.43045 55.77 8.41793 55.6792 8.40228C55.5916 8.38663 55.4977 8.36785 55.4006 8.34906L55.0688 8.26454L54.9874 7.18771C55.2097 7.25345 55.4131 7.30353 55.601 7.33171C55.7888 7.35988 55.9766 7.37866 56.1675 7.37866C56.3241 7.37866 56.4618 7.3724 56.5808 7.35988C56.6997 7.34736 56.7999 7.31919 56.8844 7.27536C56.9689 7.23154 57.0346 7.16893 57.0879 7.08754C57.1379 7.00615 57.1724 6.89972 57.188 6.76825H57.0597C56.6715 6.76825 56.3084 6.72755 55.9735 6.64616C55.6354 6.56478 55.3443 6.43643 55.0938 6.26426C54.8434 6.0921 54.6462 5.86984 54.5053 5.5975C54.3613 5.32516 54.2925 4.99961 54.2925 4.61771C54.2925 4.28276 54.3613 3.98225 54.4991 3.71617C54.6368 3.45323 54.8278 3.22784 55.0719 3.04628C55.3161 2.86472 55.6103 2.72073 55.9484 2.62369C56.2865 2.52352 56.659 2.47656 57.0628 2.47656H58.34L58.3306 5.70393H58.3243ZM55.4163 4.62084C55.4163 4.79927 55.4507 4.95579 55.5164 5.09039C55.5822 5.22499 55.6761 5.33769 55.795 5.42847C55.914 5.51924 56.0517 5.58811 56.2114 5.63507C56.371 5.68202 56.5401 5.70393 56.7247 5.70393H57.2006V3.54401H56.7247C56.5588 3.54401 56.3961 3.56905 56.2364 3.61913C56.0768 3.66922 55.9359 3.74122 55.817 3.83513C55.6949 3.92904 55.5978 4.04173 55.5258 4.1732C55.4538 4.30468 55.4163 4.4518 55.4163 4.61458V4.62084Z" fill="#1D1D1B"/>
<path d="M58.9219 5.70368H60.005C59.886 5.55655 59.7921 5.39377 59.7232 5.21534C59.6544 5.03692 59.6168 4.8397 59.6168 4.62058C59.6168 4.28564 59.6825 3.98512 59.814 3.71905C59.9455 3.4561 60.1302 3.23071 60.3681 3.04289C60.606 2.8582 60.8909 2.71734 61.2258 2.6203C61.5607 2.52326 61.9301 2.4763 62.3339 2.4763H63.6675V5.70368H64.4093V6.77112H58.925V5.70368H58.9219ZM61.5701 1.68746C61.4449 1.78137 61.2978 1.82833 61.1256 1.82833C60.9535 1.82833 60.8063 1.78137 60.6811 1.68746C60.5559 1.59355 60.4964 1.45582 60.4964 1.28052C60.4964 1.11774 60.5559 0.986266 60.678 0.886096C60.8001 0.785925 60.9472 0.73584 61.1256 0.73584C61.3041 0.73584 61.4512 0.785925 61.5733 0.886096C61.6953 0.986266 61.7548 1.11774 61.7548 1.28052C61.7548 1.45895 61.6922 1.59355 61.5701 1.68746ZM60.7469 4.62058C60.7469 4.85536 60.8032 5.06196 60.9128 5.24665C61.0223 5.43134 61.1726 5.58159 61.3604 5.70368H62.5311V3.54375H62.0553C61.8926 3.54375 61.7329 3.56566 61.5733 3.61261C61.4136 3.65957 61.2728 3.72844 61.1538 3.81922C61.0317 3.91 60.9347 4.02269 60.8596 4.15729C60.7844 4.2919 60.7469 4.44528 60.7469 4.61745V4.62058ZM63.3231 1.68746C63.1979 1.78137 63.0508 1.82833 62.8786 1.82833C62.7064 1.82833 62.5593 1.78137 62.4341 1.68746C62.3089 1.59355 62.2494 1.45582 62.2494 1.28052C62.2494 1.11774 62.3089 0.986266 62.431 0.886096C62.5531 0.785925 62.7002 0.73584 62.8786 0.73584C63.057 0.73584 63.2136 0.785925 63.3325 0.886096C63.4515 0.986266 63.5109 1.11774 63.5109 1.28052C63.5109 1.45895 63.4483 1.59355 63.3263 1.68746H63.3231Z" fill="#1D1D1B"/>
<path d="M64.2438 5.70404H65.3269C65.2079 5.55692 65.114 5.39414 65.0451 5.21571C64.9763 5.03728 64.9387 4.84007 64.9387 4.62095C64.9387 4.286 65.0044 3.98549 65.1359 3.71941C65.2674 3.45647 65.4521 3.23108 65.69 3.04326C65.9279 2.85857 66.2128 2.71771 66.5477 2.62067C66.8826 2.52363 67.252 2.47667 67.6558 2.47667H68.9894V5.70404H69.7406V6.77149H64.2469V5.70404H64.2438ZM66.0688 4.62095C66.0688 4.85572 66.1251 5.06232 66.2347 5.24701C66.3442 5.4317 66.4945 5.58196 66.6823 5.70404H67.853V3.54411H67.3772C67.2145 3.54411 67.0548 3.56603 66.8952 3.61298C66.7355 3.65994 66.5947 3.7288 66.4757 3.81958C66.3536 3.91036 66.2566 4.02305 66.1815 4.15766C66.1063 4.29226 66.0688 4.44565 66.0688 4.61782V4.62095ZM67.7685 1.6847C67.6371 1.78174 67.4805 1.82869 67.3052 1.82869C67.1299 1.82869 66.9734 1.78174 66.842 1.6847C66.7105 1.58766 66.6447 1.44679 66.6447 1.25584C66.6447 1.0868 66.7073 0.9522 66.8357 0.848899C66.9609 0.745598 67.1206 0.692383 67.3084 0.692383C67.4962 0.692383 67.6558 0.745598 67.781 0.848899C67.9063 0.9522 67.972 1.08993 67.972 1.25584C67.972 1.44366 67.9063 1.58766 67.7748 1.6847H67.7685Z" fill="#1D1D1B"/>
<path d="M69.5747 5.70402H70.3573C70.3354 5.62889 70.3197 5.5475 70.3135 5.46924C70.3041 5.38785 70.3009 5.30333 70.3009 5.21882C70.3009 4.89326 70.3636 4.58962 70.4919 4.30789C70.6171 4.02616 70.7924 3.77886 71.0084 3.56913C71.2275 3.3594 71.4811 3.19036 71.7753 3.06828C72.0696 2.94619 72.3826 2.88672 72.7176 2.88672C73.0525 2.88672 73.3749 2.9462 73.6754 3.06515C73.976 3.1841 74.2358 3.35001 74.458 3.55661C74.6803 3.76634 74.8556 4.01364 74.9839 4.29537C75.1091 4.58023 75.1749 4.887 75.1749 5.21882C75.1749 5.55063 75.1091 5.84488 74.9777 6.12348C74.8462 6.40208 74.6678 6.63999 74.4392 6.84346C74.2139 7.04693 73.9509 7.20657 73.6567 7.32553C73.3593 7.44135 73.0494 7.50083 72.7207 7.50083C72.3764 7.50083 72.0539 7.43509 71.7503 7.30675C71.4498 7.17527 71.1837 6.99997 70.9583 6.77772H69.5778V5.71028L69.5747 5.70402ZM72.2073 6.33321C72.3638 6.39582 72.5329 6.42712 72.7176 6.42712C72.9023 6.42712 73.0713 6.39582 73.2341 6.33634C73.3968 6.27374 73.5377 6.18922 73.6567 6.07966C73.7756 5.97009 73.8727 5.84175 73.9384 5.6915C74.0041 5.54124 74.0386 5.37846 74.0386 5.20003C74.0386 5.0216 74.0073 4.8557 73.9415 4.70544C73.8758 4.55205 73.785 4.42058 73.6661 4.30789C73.5471 4.1952 73.4062 4.10755 73.2466 4.04494C73.0838 3.98233 72.9085 3.95103 72.7144 3.95103C72.5203 3.95103 72.3544 3.98546 72.1979 4.0512C72.0414 4.11694 71.9068 4.20772 71.7941 4.31728C71.6814 4.42997 71.5938 4.56145 71.528 4.71483C71.4623 4.86822 71.431 5.031 71.431 5.20316C71.431 5.37533 71.4623 5.53811 71.528 5.68836C71.5938 5.83862 71.6846 5.96696 71.8004 6.07653C71.9162 6.18609 72.0508 6.27374 72.2073 6.33634V6.33321Z" fill="#1D1D1B"/>
<path d="M35.0438 16.5035C34.8028 16.5035 34.5805 16.491 34.3864 16.4691C34.1924 16.4472 34.0077 16.4096 33.8418 16.3595C33.6759 16.3095 33.5225 16.2437 33.3847 16.1655C33.247 16.0872 33.1155 15.9902 32.9935 15.8806C32.7931 15.7022 32.6554 15.4737 32.574 15.1888C32.4926 14.9071 32.4519 14.6097 32.4519 14.2998V12.8567H33.582V14.1683C33.582 14.3968 33.607 14.5909 33.6602 14.7537C33.7103 14.9133 33.7979 15.0448 33.9232 15.145C34.064 15.2577 34.2393 15.3328 34.4491 15.3735C34.6588 15.4142 34.8842 15.4361 35.1283 15.4361H37.3916V12.2087H38.5216V16.5067H35.0469L35.0438 16.5035ZM35.0908 11.8206C34.9656 11.9145 34.8184 11.9614 34.6463 11.9614C34.4741 11.9614 34.327 11.9145 34.2018 11.8206C34.0765 11.7267 34.0171 11.5889 34.0171 11.4136C34.0171 11.2508 34.0765 11.1194 34.1986 11.0223C34.3207 10.9222 34.471 10.8721 34.6463 10.8721C34.8216 10.8721 34.9718 10.9222 35.0939 11.0223C35.216 11.1225 35.2755 11.254 35.2755 11.4136C35.2755 11.592 35.2129 11.7267 35.0908 11.8206ZM36.8438 11.8206C36.7185 11.9145 36.5714 11.9614 36.3993 11.9614C36.2271 11.9614 36.08 11.9145 35.9547 11.8206C35.8295 11.7267 35.7701 11.5889 35.7701 11.4136C35.7701 11.2508 35.8295 11.1194 35.9516 11.0223C36.0737 10.9222 36.2208 10.8721 36.3993 10.8721C36.5777 10.8721 36.7342 10.9222 36.85 11.0223C36.969 11.1225 37.0284 11.254 37.0284 11.4136C37.0284 11.592 36.9658 11.7267 36.8438 11.8206Z" fill="#1D1D1B"/>
<path d="M40.0616 10.3118H41.1917V16.5004H40.0616V10.3118Z" fill="#1D1D1B"/>
<path d="M42.6947 18.1814C42.5883 18.1814 42.4819 18.1751 42.3786 18.1626C42.2753 18.1501 42.1907 18.1344 42.1187 18.1125L42.0374 17.0451C42.1438 17.0701 42.2377 17.0889 42.3191 17.0983C42.4005 17.1077 42.4819 17.1139 42.5695 17.1139C42.7949 17.1139 42.9545 17.0544 43.0422 16.9386C43.1298 16.8228 43.1768 16.6319 43.1768 16.3658V12.2056H44.3068V16.2124C44.3068 16.5599 44.2787 16.8541 44.2192 17.1014C44.1597 17.3487 44.0658 17.5522 43.9375 17.7118C43.8091 17.8715 43.6401 17.9904 43.4366 18.0655C43.2331 18.1407 42.9827 18.1814 42.6916 18.1814H42.6947Z" fill="#1D1D1B"/>
<path d="M49.2777 15.4329H50.029V16.5003H49.262C49.2401 16.7507 49.19 16.9761 49.1086 17.1827C49.0272 17.3893 48.9052 17.5646 48.7455 17.7117C48.5827 17.8589 48.3761 17.9747 48.1226 18.0561C47.869 18.1375 47.5622 18.1782 47.2023 18.1782C47.0958 18.1782 46.9957 18.175 46.9018 18.1656C46.811 18.1594 46.7202 18.1468 46.6325 18.1312C46.5449 18.1155 46.451 18.0968 46.3539 18.078L46.0221 17.9935L45.9407 16.9166C46.163 16.9824 46.3665 17.0325 46.5543 17.0606C46.7421 17.0919 46.9299 17.1076 47.1209 17.1076C47.2774 17.1076 47.4151 17.1013 47.5341 17.0888C47.653 17.0763 47.7532 17.0481 47.8377 17.0043C47.9222 16.9605 47.988 16.8978 48.0381 16.8165C48.0881 16.7351 48.1226 16.6286 48.1382 16.4972H48.0099C47.6217 16.4972 47.2586 16.4565 46.9237 16.3751C46.5856 16.2937 46.2945 16.1653 46.044 15.9932C45.7936 15.821 45.5964 15.5988 45.4555 15.3264C45.3115 15.0541 45.2427 14.7285 45.2427 14.3466C45.2427 14.0117 45.3115 13.7112 45.4493 13.4451C45.587 13.1821 45.778 12.9568 46.0221 12.7721C46.2663 12.5905 46.5605 12.4465 46.8986 12.3495C47.2367 12.2493 47.6092 12.1992 48.013 12.1992H49.2902L49.2808 15.4266L49.2777 15.4329ZM46.3696 14.3498C46.3696 14.5282 46.404 14.6847 46.4698 14.8193C46.5355 14.9539 46.6294 15.0666 46.7484 15.1574C46.8673 15.2482 47.0051 15.317 47.1647 15.364C47.3243 15.4109 47.4934 15.4329 47.6781 15.4329H48.1539V13.2729H47.6781C47.5122 13.2729 47.3494 13.298 47.1897 13.3481C47.0301 13.3981 46.8892 13.4701 46.7703 13.5672C46.6482 13.6611 46.5512 13.7738 46.4792 13.9052C46.4072 14.0367 46.3696 14.1838 46.3696 14.3466V14.3498Z" fill="#1D1D1B"/>
<path d="M49.8752 15.4328H51.5625V12.2054H52.6925V15.4328H54.1794V16.5002H49.8721V15.4328H49.8752ZM51.6188 11.3759C51.4936 11.4635 51.3527 11.5105 51.1899 11.5105C51.0272 11.5105 50.8863 11.4667 50.7642 11.3759C50.6421 11.2882 50.5827 11.1536 50.5827 10.9752C50.5827 10.8187 50.639 10.6903 50.7548 10.5933C50.8706 10.4963 51.0146 10.4493 51.1868 10.4493C51.359 10.4493 51.503 10.4963 51.6219 10.5933C51.7409 10.6903 51.8004 10.8187 51.8004 10.9752C51.8004 11.1536 51.7377 11.2882 51.6157 11.3759H51.6188ZM52.0477 10.2959C51.9068 10.2959 51.7816 10.2584 51.672 10.177C51.5624 10.0987 51.5061 9.98289 51.5061 9.8295C51.5061 9.69177 51.5562 9.57907 51.6595 9.49455C51.7628 9.41004 51.8911 9.36621 52.0477 9.36621C52.2042 9.36621 52.3325 9.41004 52.4358 9.49455C52.5391 9.57907 52.5892 9.69177 52.5892 9.8295C52.5892 9.98289 52.536 10.0987 52.4264 10.177C52.32 10.2552 52.1916 10.2959 52.0477 10.2959ZM52.9054 11.5105C52.7426 11.5105 52.6017 11.4667 52.4828 11.3759C52.3607 11.2882 52.3012 11.1536 52.3012 10.9752C52.3012 10.8187 52.3576 10.6903 52.4734 10.5933C52.5892 10.4963 52.7332 10.4493 52.9054 10.4493C53.0775 10.4493 53.2309 10.4963 53.3467 10.5933C53.4626 10.6903 53.522 10.8187 53.522 10.9752C53.522 11.1536 53.4626 11.2882 53.3405 11.3759C53.2184 11.4635 53.0744 11.5105 52.9085 11.5105H52.9054Z" fill="#1D1D1B"/>
<path d="M54.0198 15.4329H55.3846L54.3829 13.0069C54.577 12.8504 54.7711 12.7032 54.9683 12.5718C55.1655 12.4403 55.3627 12.3245 55.5662 12.2274C55.7665 12.1304 55.9762 12.0553 56.1922 12.002C56.4082 11.9488 56.6305 11.9207 56.8621 11.9207C57.3317 11.9207 57.7699 12.024 58.18 12.2274C58.5901 12.4309 58.9782 12.6938 59.3507 13.0131L58.3803 15.4329H59.8672V16.5003H54.0198V15.4329ZM56.8621 13.0507C56.6367 13.0507 56.4301 13.0851 56.2392 13.1509C56.0514 13.2166 55.8542 13.3199 55.6507 13.4639L56.3863 15.4329H57.3567L58.0923 13.4576C57.867 13.3105 57.6635 13.2072 57.4819 13.1446C57.3004 13.0851 57.0969 13.0538 56.8653 13.0538L56.8621 13.0507Z" fill="#1D1D1B"/>
<path d="M59.7079 15.4329H60.4905C60.4686 15.3578 60.4529 15.2764 60.4466 15.195C60.4404 15.1136 60.4341 15.0291 60.4341 14.9446C60.4341 14.619 60.4967 14.3154 60.6251 14.0337C60.7534 13.7519 60.9256 13.5046 61.1416 13.2918C61.3607 13.0821 61.6143 12.913 61.9085 12.7909C62.2028 12.6689 62.5158 12.6094 62.8507 12.6094C63.1857 12.6094 63.5081 12.6689 63.8086 12.7878C64.106 12.9068 64.3689 13.0727 64.5912 13.2793C64.8135 13.4859 64.9888 13.7332 65.1171 14.018C65.2423 14.3029 65.308 14.6097 65.308 14.9415C65.308 15.2733 65.2423 15.5675 65.1108 15.8461C64.9794 16.1247 64.8009 16.3626 64.5724 16.5661C64.347 16.7696 64.0841 16.9292 63.7898 17.0482C63.4925 17.164 63.1825 17.2235 62.8539 17.2235C62.5095 17.2235 62.1871 17.1577 61.8835 17.0294C61.583 16.9011 61.3169 16.7226 61.0915 16.5004H59.711V15.4329H59.7079ZM62.3405 16.0621C62.497 16.1247 62.666 16.156 62.8507 16.156C63.0354 16.156 63.2076 16.1247 63.3672 16.0653C63.53 16.0027 63.6709 15.9181 63.793 15.8086C63.915 15.699 64.009 15.5707 64.0747 15.4204C64.1404 15.2702 64.1749 15.1074 64.1749 14.929C64.1749 14.7505 64.1436 14.5846 64.0778 14.4344C64.0121 14.281 63.9213 14.1495 63.8024 14.0368C63.6834 13.9241 63.5425 13.8365 63.3829 13.7739C63.2201 13.7113 63.0448 13.6799 62.8507 13.6799C62.6567 13.6799 62.4907 13.7144 62.3342 13.7801C62.1777 13.8459 62.0431 13.9366 61.9304 14.0462C61.8177 14.1589 61.7301 14.2904 61.6643 14.4437C61.5986 14.5971 61.5673 14.7599 61.5673 14.9321C61.5673 15.1042 61.5986 15.267 61.6643 15.4173C61.7301 15.5675 61.8209 15.6959 61.9367 15.8054C62.0525 15.915 62.1871 16.0027 62.3436 16.0653L62.3405 16.0621Z" fill="#1D1D1B"/>
<path d="M1.38646 5.81031H4.23193V6.83393H0.27832V0.645264H1.38646V5.81031Z" fill="#1D1D1B"/>
<path d="M8.03509 6.74947C7.75336 6.86529 7.44659 6.92477 7.11478 6.92477C6.78296 6.92477 6.47619 6.86529 6.19446 6.74947C5.91273 6.63365 5.66543 6.474 5.45883 6.27366C5.2491 6.07332 5.08632 5.83228 4.96737 5.55681C4.84842 5.28134 4.78894 4.98083 4.78894 4.66154C4.78894 4.34224 4.84842 4.04486 4.96737 3.76939C5.08632 3.49392 5.25223 3.25289 5.45883 3.04942C5.66856 2.84281 5.91273 2.68317 6.19446 2.56421C6.47619 2.44839 6.78296 2.38892 7.11478 2.38892C7.44659 2.38892 7.75336 2.44839 8.03509 2.56421C8.31682 2.68004 8.56412 2.84281 8.77072 3.04942C8.98045 3.25602 9.14323 3.49705 9.26218 3.76939C9.38114 4.04486 9.44061 4.34224 9.44061 4.66154C9.44061 4.98083 9.38114 5.28134 9.26218 5.55681C9.14323 5.83228 8.97732 6.07332 8.77072 6.27366C8.56099 6.474 8.31682 6.63365 8.03509 6.74947ZM6.61079 5.78533C6.75792 5.84793 6.92696 5.87924 7.11478 5.87924C7.3026 5.87924 7.47163 5.84793 7.61876 5.78533C7.76589 5.72272 7.8911 5.63507 7.99753 5.52551C8.10396 5.41595 8.18222 5.2876 8.23857 5.13735C8.29491 4.98709 8.32308 4.82744 8.32308 4.66154C8.32308 4.49563 8.29491 4.33598 8.23857 4.18573C8.18222 4.03547 8.10396 3.90713 7.99753 3.79756C7.8911 3.688 7.76589 3.60035 7.61876 3.53462C7.47163 3.46888 7.3026 3.43445 7.11478 3.43445C6.92696 3.43445 6.75792 3.46888 6.61079 3.53462C6.46367 3.60035 6.33845 3.688 6.23202 3.79756C6.12559 3.90713 6.04733 4.03547 5.99099 4.18573C5.93464 4.33598 5.90647 4.49563 5.90647 4.66154C5.90647 4.82744 5.93464 4.98709 5.99099 5.13735C6.04733 5.2876 6.12559 5.41595 6.23202 5.52551C6.33845 5.63507 6.46367 5.72272 6.61079 5.78533Z" fill="#1D1D1B"/>
<path d="M12.1048 5.8789C12.3239 5.8789 12.5118 5.85386 12.6683 5.80378C12.8248 5.75369 12.9062 5.66604 12.9062 5.54396C12.9062 5.43127 12.8561 5.34675 12.7559 5.28414C12.6558 5.22153 12.4711 5.16519 12.1956 5.10884L11.8513 5.04624C11.3629 4.95546 10.981 4.80207 10.7056 4.58921C10.4301 4.37635 10.2924 4.08209 10.2924 3.71271C10.2924 3.30577 10.452 2.98335 10.7682 2.74231C11.0875 2.50441 11.5257 2.38232 12.086 2.38232C12.4272 2.38232 12.7559 2.41676 13.0752 2.48249C13.3945 2.54823 13.6731 2.6484 13.911 2.77988L13.5229 3.77219C13.4258 3.72211 13.3163 3.67515 13.1942 3.63133C13.0721 3.5875 12.9437 3.54994 12.8123 3.52176C12.6808 3.49046 12.5462 3.46855 12.4116 3.4529C12.277 3.43725 12.1486 3.43099 12.0266 3.43099C11.5789 3.43099 11.3535 3.5249 11.3535 3.71271C11.3535 3.80976 11.4036 3.88801 11.5069 3.95375C11.6071 4.01636 11.7949 4.07583 12.0641 4.12592L12.3991 4.1854C12.9844 4.29809 13.4039 4.46399 13.6543 4.68938C13.9048 4.91163 14.0331 5.2184 14.0331 5.60343C14.0331 5.79125 13.9924 5.96655 13.911 6.1262C13.8296 6.28585 13.7075 6.42671 13.5448 6.54566C13.382 6.66462 13.1785 6.75853 12.9312 6.82426C12.6839 6.89 12.3991 6.92443 12.0735 6.92443C11.9013 6.92443 11.726 6.91504 11.5507 6.89313C11.3754 6.87122 11.2033 6.84305 11.0342 6.80548C10.8652 6.76792 10.7087 6.72096 10.5584 6.66775C10.4082 6.61453 10.2736 6.55193 10.1515 6.47993L10.5553 5.44066C10.7494 5.569 10.9842 5.6723 11.2565 5.75369C11.532 5.83508 11.8137 5.87577 12.1048 5.87577V5.8789Z" fill="#1D1D1B"/>
<path d="M14.7216 2.53603H15.5292V0.9646H16.5966V2.53603H18.2307V3.52834H16.5966V5.08412C16.5966 5.23124 16.6091 5.35332 16.6342 5.45036C16.6592 5.5474 16.7031 5.62253 16.7625 5.67888C16.822 5.73522 16.9034 5.77592 17.0004 5.80096C17.0975 5.826 17.2164 5.83852 17.3604 5.83852H18.262V6.83084H17.2477C16.9472 6.83084 16.6905 6.80893 16.4777 6.76197C16.2648 6.71502 16.0864 6.63989 15.9424 6.53346C15.7984 6.42703 15.6951 6.28616 15.6294 6.11399C15.5636 5.94183 15.5292 5.72583 15.5292 5.46602V3.52834H14.7216V2.53603Z" fill="#1D1D1B"/>
<path d="M23.7431 6.92456C23.3925 6.92456 23.0764 6.88074 22.7946 6.79309C22.5129 6.70544 22.2719 6.58336 22.0684 6.42058C21.8681 6.2578 21.7115 6.06059 21.602 5.82895C21.4924 5.5973 21.4392 5.33749 21.4392 5.04636C21.4392 4.61751 21.5644 4.25439 21.818 3.95075C22.0684 3.64711 22.4691 3.39981 23.02 3.20573C22.8259 2.98348 22.6726 2.76435 22.5536 2.54836C22.4378 2.3355 22.3783 2.10698 22.3783 1.86282C22.3783 1.66561 22.4221 1.48405 22.5129 1.32127C22.6006 1.15849 22.7258 1.01763 22.8854 0.898676C23.0451 0.779723 23.2391 0.688944 23.4645 0.623207C23.6899 0.55747 23.9403 0.529297 24.2096 0.529297C24.5101 0.529297 24.773 0.563731 25.0047 0.635728C25.2363 0.707726 25.4273 0.807896 25.5838 0.93624C25.7403 1.06458 25.8592 1.2211 25.9375 1.40266C26.0158 1.58422 26.0564 1.78143 26.0564 2.00055C26.0564 2.13829 26.0314 2.27915 25.9845 2.42941C25.9344 2.57653 25.8592 2.72053 25.7559 2.86452C25.6526 3.00852 25.518 3.14312 25.3553 3.26834C25.1925 3.39355 24.9953 3.50624 24.7605 3.60328L25.7998 4.72394C25.9218 4.52673 26.0251 4.317 26.1097 4.09474C26.1942 3.87249 26.2568 3.64711 26.2975 3.41859H27.4119C27.3493 3.77858 27.2428 4.13544 27.0863 4.48604C26.9298 4.83663 26.7357 5.16532 26.501 5.46896L27.7593 6.82752H26.4102L25.7998 6.1858C25.5149 6.41432 25.2019 6.59275 24.8575 6.72422C24.5132 6.8557 24.1438 6.9183 23.7463 6.9183L23.7431 6.92456ZM23.7744 5.93225C24.0343 5.93225 24.2753 5.89155 24.5038 5.81017C24.7292 5.72878 24.9358 5.61609 25.1267 5.47522L23.668 3.91945C23.2548 4.04153 22.9668 4.18865 22.8072 4.36082C22.6444 4.53299 22.563 4.73959 22.563 4.9775C22.563 5.12462 22.5943 5.25923 22.6538 5.37818C22.7133 5.49713 22.8009 5.5973 22.9105 5.67869C23.02 5.76008 23.1484 5.82269 23.2955 5.86651C23.4426 5.91034 23.6023 5.93225 23.7776 5.93225H23.7744ZM23.4927 1.92542C23.4927 2.09446 23.5522 2.25411 23.6743 2.4075C23.7963 2.56088 23.9403 2.72679 24.1094 2.90209C24.4349 2.79566 24.6666 2.66418 24.8012 2.50767C24.9358 2.35115 25.0047 2.19463 25.0047 2.03186C25.0047 1.83465 24.9295 1.68439 24.7761 1.58109C24.6228 1.48092 24.4475 1.4277 24.2502 1.4277C24.053 1.4277 23.8777 1.4684 23.7244 1.54665C23.571 1.62491 23.4958 1.75013 23.4958 1.92542H23.4927Z" fill="#1D1D1B"/>
<path d="M3.25525 16.5036V10.3149H7.19947V11.3386H4.354V12.8129H6.924V13.8491H4.354V16.5036H3.25525Z" fill="#1D1D1B"/>
<path d="M11.0809 16.4191C10.7991 16.535 10.4924 16.5944 10.1606 16.5944C9.82874 16.5944 9.52197 16.535 9.24024 16.4191C8.95851 16.3033 8.71121 16.1437 8.50461 15.9433C8.29488 15.743 8.1321 15.502 8.01315 15.2265C7.89419 14.951 7.83472 14.6505 7.83472 14.3312C7.83472 14.0119 7.89419 13.7145 8.01315 13.4391C8.1321 13.1636 8.29801 12.9226 8.50461 12.7191C8.71434 12.5125 8.95851 12.3528 9.24024 12.2339C9.52197 12.1181 9.82874 12.0586 10.1606 12.0586C10.4924 12.0586 10.7991 12.1181 11.0809 12.2339C11.3626 12.3497 11.6099 12.5125 11.8165 12.7191C12.0262 12.9257 12.189 13.1667 12.308 13.4391C12.4269 13.7145 12.4864 14.0119 12.4864 14.3312C12.4864 14.6505 12.4269 14.951 12.308 15.2265C12.189 15.502 12.0231 15.743 11.8165 15.9433C11.6068 16.1437 11.3626 16.3033 11.0809 16.4191ZM9.65657 15.455C9.8037 15.5176 9.97273 15.5489 10.1606 15.5489C10.3484 15.5489 10.5174 15.5176 10.6645 15.455C10.8117 15.3924 10.9369 15.3047 11.0433 15.1952C11.1497 15.0856 11.228 14.9573 11.2843 14.807C11.3407 14.6568 11.3689 14.4971 11.3689 14.3312C11.3689 14.1653 11.3407 14.0057 11.2843 13.8554C11.228 13.7051 11.1497 13.5768 11.0433 13.4672C10.9369 13.3577 10.8117 13.27 10.6645 13.2043C10.5174 13.1386 10.3484 13.1041 10.1606 13.1041C9.97273 13.1041 9.8037 13.1386 9.65657 13.2043C9.50944 13.27 9.38423 13.3577 9.2778 13.4672C9.17137 13.5768 9.09311 13.7051 9.03676 13.8554C8.98042 14.0057 8.95224 14.1653 8.95224 14.3312C8.95224 14.4971 8.98042 14.6568 9.03676 14.807C9.09311 14.9573 9.17137 15.0856 9.2778 15.1952C9.38423 15.3047 9.50944 15.3924 9.65657 15.455Z" fill="#1D1D1B"/>
<path d="M16.108 12.2056H17.1755V16.2813C17.0221 16.3313 16.875 16.3752 16.7341 16.4159C16.5901 16.4534 16.4492 16.4879 16.3021 16.516C16.1581 16.5442 16.0047 16.563 15.8482 16.5786C15.6917 16.5912 15.5195 16.5974 15.338 16.5974C15.0625 16.5974 14.809 16.5692 14.571 16.5098C14.3331 16.4503 14.1297 16.3533 13.9544 16.2155C13.7791 16.0778 13.6413 15.8994 13.5412 15.674C13.441 15.4517 13.394 15.17 13.394 14.835V12.2118H14.4615V14.5314C14.4615 14.9227 14.5272 15.1919 14.6587 15.3359C14.7902 15.4799 15.0062 15.555 15.3067 15.555C15.4225 15.555 15.5477 15.5488 15.6761 15.5331C15.8044 15.5175 15.9484 15.4893 16.108 15.4486V12.215V12.2056Z" fill="#1D1D1B"/>
<path d="M18.5656 12.2745C18.7346 12.2432 18.9068 12.215 19.0852 12.1869C19.2636 12.1587 19.4358 12.1368 19.608 12.118C19.777 12.0992 19.9398 12.0835 20.0932 12.071C20.2465 12.0585 20.3811 12.0522 20.497 12.0522C20.7724 12.0522 21.0291 12.0773 21.2702 12.1274C21.5112 12.1775 21.7209 12.2714 21.8994 12.4028C22.0778 12.5343 22.2186 12.7159 22.3219 12.9444C22.4252 13.1729 22.4785 13.464 22.4785 13.8146V16.5004H21.411V14.1183C21.411 13.727 21.3296 13.4578 21.1669 13.3138C21.0041 13.1698 20.7662 13.0978 20.45 13.0978C20.3342 13.0978 20.2058 13.104 20.0681 13.1197C19.9304 13.1353 19.7864 13.1541 19.633 13.1823V16.5004H18.5656V12.2745Z" fill="#1D1D1B"/>
<path d="M26.5822 10.3149H27.6496V16.3753C27.1144 16.5224 26.5415 16.5975 25.9248 16.5975C25.5273 16.5975 25.1736 16.5412 24.8636 16.4253C24.5537 16.3095 24.2908 16.153 24.0748 15.9495C23.8588 15.7461 23.696 15.5082 23.5833 15.2327C23.4707 14.9572 23.4143 14.6598 23.4143 14.3405C23.4143 14.0213 23.4707 13.7207 23.5865 13.4453C23.7023 13.1667 23.8651 12.9256 24.0779 12.719C24.2908 12.5124 24.5475 12.3528 24.8449 12.2338C25.1422 12.118 25.4741 12.0585 25.8403 12.0585C25.9374 12.0585 26.0469 12.0648 26.1721 12.0742C26.2973 12.0836 26.4319 12.0992 26.5791 12.1211V10.3212L26.5822 10.3149ZM24.9106 13.4046C24.6602 13.608 24.5381 13.918 24.5381 14.3343C24.5381 14.7506 24.6633 15.0574 24.9106 15.2546C25.1579 15.4518 25.496 15.5489 25.9186 15.5489C26.1127 15.5489 26.3318 15.5207 26.5822 15.4643V13.1917C26.4507 13.1573 26.3318 13.1322 26.2222 13.1197C26.1158 13.1072 26.0125 13.1009 25.9154 13.1009C25.4928 13.1009 25.1579 13.2042 24.9075 13.4077L24.9106 13.4046Z" fill="#1D1D1B"/>
<path d="M98.6392 0.604492H90.6318C89.8348 0.604492 89.1887 1.25058 89.1887 2.04757V2.05071C89.1887 2.8477 89.8348 3.49379 90.6318 3.49379H98.6392C99.4362 3.49379 100.082 2.8477 100.082 2.05071V2.04757C100.082 1.25058 99.4362 0.604492 98.6392 0.604492Z" fill="#D05195"/>
<path d="M100.098 10.7309C100.098 11.1285 99.9354 11.4916 99.6755 11.7514C99.4157 12.0112 99.0526 12.174 98.6551 12.174H88.0151C87.2168 12.174 86.572 11.526 86.572 10.7309C86.572 10.3334 86.7348 9.97027 86.9946 9.71045C87.2544 9.45063 87.6175 9.28786 88.0151 9.28786H89.1921L90.7134 9.28473C90.9138 9.28473 91.0953 9.20334 91.2237 9.07187C91.3551 8.94039 91.4365 8.75883 91.4365 8.56162C91.4365 8.16094 91.1141 7.83851 90.7134 7.83851H86.115C85.3167 7.83851 84.6719 7.19054 84.6719 6.3923C84.6719 5.99475 84.8347 5.63163 85.0945 5.37181C85.3543 5.112 85.7174 4.94922 86.115 4.94922H96.755C97.5532 4.94922 98.198 5.5972 98.198 6.3923C98.198 6.78985 98.0353 7.15297 97.7754 7.41279C97.5156 7.67574 97.1525 7.83538 96.755 7.83538H93.994C93.7937 7.83538 93.6121 7.91677 93.4838 8.04825C93.3523 8.17972 93.2709 8.36128 93.2709 8.55849C93.2709 8.95604 93.5933 9.2816 93.994 9.2816H95.7752L98.6551 9.28473C99.4533 9.28473 100.098 9.93271 100.098 10.7278V10.7309Z" fill="url(#paint0_linear_1029_18721)"/>
<path d="M93.1925 13.6265H86.1461C85.3491 13.6265 84.703 14.2726 84.703 15.0695V15.0727C84.703 15.8697 85.3491 16.5158 86.1461 16.5158H93.1925C93.9895 16.5158 94.6355 15.8697 94.6355 15.0727V15.0695C94.6355 14.2726 93.9895 13.6265 93.1925 13.6265Z" fill="#2899D5"/>
<path d="M88.2874 0.604492H85.3887V3.50318H88.2874V0.604492Z" fill="#D05195"/>
<path d="M97.2276 16.5629C98.0298 16.5629 98.6801 15.9126 98.6801 15.1104C98.6801 14.3083 98.0298 13.658 97.2276 13.658C96.4254 13.658 95.7751 14.3083 95.7751 15.1104C95.7751 15.9126 96.4254 16.5629 97.2276 16.5629Z" fill="#2899D5"/>
<defs>
<linearGradient id="paint0_linear_1029_18721" x1="84.6719" y1="8.56475" x2="100.098" y2="8.56475" gradientUnits="userSpaceOnUse">
<stop stop-color="#D05194"/>
<stop offset="1" stop-color="#2A98D5"/>
</linearGradient>
</defs>
</svg>
