<svg width="60" height="60" viewBox="0 0 60 60" fill="none" xmlns="http://www.w3.org/2000/svg">
<g id="annotation-alert">
<path id="Icon" d="M30 24.6473V14.4286M30 34.8661H30.0303M23.6417 50.0482L28.0622 55.7318C28.7196 56.577 29.0483 56.9996 29.4513 57.1507C29.8042 57.2831 30.1958 57.2831 30.5487 57.1507C30.9517 56.9996 31.2804 56.577 31.9378 55.7318L36.3583 50.0482C37.2459 48.907 37.6897 48.3364 38.231 47.9008C38.9528 47.32 39.8049 46.9091 40.7198 46.7009C41.406 46.5446 42.1457 46.5446 43.625 46.5446C47.8573 46.5446 49.9735 46.5446 51.6427 45.8779C53.8684 44.9889 55.6367 43.2838 56.5586 41.1376C57.25 39.528 57.25 37.4874 57.25 33.4063V16.7643C57.25 11.8588 57.25 9.4061 56.26 7.53246C55.3891 5.88436 53.9995 4.54441 52.2904 3.70467C50.3474 2.75 47.8038 2.75 42.7167 2.75H17.2833C12.1962 2.75 9.65262 2.75 7.70959 3.70467C6.00045 4.54441 4.61087 5.88436 3.74002 7.53246C2.75 9.4061 2.75 11.8588 2.75 16.7643V33.4063C2.75 37.4874 2.75 39.528 3.44143 41.1376C4.36333 43.2838 6.13162 44.9889 8.35729 45.8779C10.0265 46.5446 12.1427 46.5446 16.375 46.5446C17.8543 46.5446 18.594 46.5446 19.2802 46.7009C20.1951 46.9091 21.0472 47.32 21.769 47.9008C22.3103 48.3364 22.7541 48.907 23.6417 50.0482Z" stroke="#FF3B30" stroke-width="3.5" stroke-linecap="round" stroke-linejoin="round"/>
</g>
</svg>
