<svg width="60" height="60" viewBox="0 0 60 60" fill="none" xmlns="http://www.w3.org/2000/svg">
<path d="M49.1293 23.82H49.1693C50.1393 23.82 50.9193 24.6 50.9193 25.57C50.9193 26.54 50.1393 27.32 49.1693 27.32H49.1293C48.1593 27.32 47.3793 26.54 47.3793 25.57C47.3793 24.6 48.1593 23.82 49.1293 23.82Z" fill="#5856D6"/>
<path d="M49.1693 16.96H49.1293C48.1593 16.96 47.3793 17.74 47.3793 18.71C47.3793 19.68 48.1593 20.46 49.1293 20.46H49.1693C50.1393 20.46 50.9193 19.68 50.9193 18.71C50.9193 17.74 50.1393 16.96 49.1693 16.96Z" fill="#5856D6"/>
<path d="M49.1293 10.11H49.1693C50.1393 10.11 50.9193 10.89 50.9193 11.86C50.9193 12.83 50.1393 13.61 49.1693 13.61H49.1293C48.1593 13.61 47.3793 12.83 47.3793 11.86C47.3793 10.89 48.1593 10.11 49.1293 10.11Z" fill="#5856D6"/>
<path fill-rule="evenodd" clip-rule="evenodd" d="M58.3293 5.47C58.5893 6 58.6793 6.53 58.7193 7.02C58.7593 7.47 58.7593 8.01 58.7593 8.6V28.83C58.7593 29.42 58.7593 29.96 58.7193 30.41C58.6893 30.9 58.5993 31.43 58.3293 31.96C57.9493 32.72 57.3393 33.34 56.5893 33.73C56.0593 34.01 55.5293 34.1 55.0393 34.14C54.5893 34.18 54.0593 34.18 53.4793 34.18H50.8893V52.6C50.8893 53.57 50.1093 54.35 49.1393 54.35C48.1693 54.35 47.3893 53.57 47.3893 52.6V34.18H44.7993C44.2193 34.18 43.6893 34.18 43.2393 34.14C42.7593 34.1 42.2193 34 41.6893 33.73C40.9393 33.34 40.3293 32.72 39.9493 31.96C39.6893 31.43 39.5993 30.9 39.5593 30.41C39.5193 29.96 39.5193 29.42 39.5193 28.83V8.6C39.5193 8.01 39.5193 7.47 39.5593 7.02C39.5893 6.53 39.6793 6 39.9493 5.47C40.3293 4.71 40.9393 4.09 41.6893 3.7C42.2193 3.42 42.7493 3.33 43.2393 3.29C43.6893 3.25 44.2193 3.25 44.7993 3.25H53.4693C54.0493 3.25 54.5793 3.25 55.0393 3.29C55.5193 3.33 56.0593 3.43 56.5893 3.7C57.3393 4.09 57.9493 4.71 58.3293 5.47ZM55.2293 30.13C55.2593 29.84 55.2593 29.44 55.2593 28.77V8.66C55.2593 7.99 55.2493 7.59 55.2293 7.3C55.2167 7.19345 55.2042 7.12225 55.1966 7.07902C55.192 7.05329 55.1893 7.03746 55.1893 7.03C55.1393 6.94 55.0593 6.87 54.9793 6.82C54.9683 6.82 54.9518 6.8173 54.9281 6.8134C54.8871 6.80666 54.8242 6.79633 54.7293 6.79C54.4493 6.76 54.0593 6.76 53.3993 6.76H44.8493C44.1893 6.76 43.8093 6.77 43.5193 6.79C43.4083 6.79694 43.3406 6.80868 43.3029 6.81523C43.2862 6.81812 43.2754 6.82 43.2693 6.82C43.1793 6.86 43.1093 6.94 43.0593 7.03C43.0493 7.05 43.0293 7.12 43.0193 7.3C42.9993 7.58994 42.9993 7.98985 42.9993 8.65962V28.77C42.9993 29.4398 42.9993 29.8401 43.0193 30.13C43.0318 30.2366 43.0443 30.3077 43.0519 30.351C43.0565 30.3767 43.0593 30.3925 43.0593 30.4C43.1093 30.49 43.1893 30.56 43.2693 30.61C43.2803 30.61 43.2967 30.6127 43.3205 30.6166C43.3614 30.6233 43.4243 30.6337 43.5193 30.64C43.7993 30.67 44.1893 30.67 44.8493 30.67H53.3993C54.0593 30.67 54.4393 30.66 54.7293 30.64C54.8402 30.6331 54.9079 30.6213 54.9456 30.6148C54.9623 30.6119 54.9731 30.61 54.9793 30.61C55.0693 30.57 55.1393 30.49 55.1893 30.4C55.1993 30.38 55.2193 30.31 55.2293 30.13Z" fill="#5856D6"/>
<path d="M15.0793 46.54H39.0193C39.9893 46.54 40.7693 47.32 40.7693 48.29C40.7693 49.26 39.9893 50.04 39.0193 50.04H15.7093C15.4093 53.19 12.8493 55.75 9.59926 55.75L8.15927 55.7501C7.38651 55.7507 6.74875 55.7512 6.18926 55.63C3.71926 55.12 1.84926 53.12 1.37926 50.65C1.25926 50.04 1.25926 49.35 1.25926 48.45V42.04C1.25926 40.18 1.25926 38.69 1.33926 37.46C1.43926 36.21 1.63926 35.11 2.13926 34.1C2.64926 33.08 3.33926 32.17 4.17926 31.43L2.18926 30.39C1.33926 29.94 0.999261 28.89 1.44926 28.03C1.89926 27.18 2.94926 26.84 3.80926 27.29L6.35926 28.62L8.50926 21.89C8.53925 21.79 8.56923 21.7001 8.59922 21.6101L8.61323 21.5664C9.09653 20.0572 9.47631 18.8712 10.2093 17.96C10.8593 17.14 11.7093 16.5 12.6693 16.11C13.7693 15.66 15.0193 15.66 16.5493 15.66H32.8193C33.7893 15.66 34.5693 16.44 34.5693 17.41C34.5693 18.38 33.7893 19.16 32.8193 19.16H16.8393C14.8693 19.16 14.3793 19.2 13.9993 19.35C13.5893 19.52 13.2293 19.79 12.9393 20.15C12.6593 20.5 12.4693 21.01 11.8493 22.95L9.77926 29.43C10.8093 29.38 12.0293 29.38 13.4593 29.38H32.8093C33.7793 29.38 34.5593 30.16 34.5593 31.13C34.5593 32.1 33.7793 32.88 32.8093 32.88H13.5293C11.6593 32.88 10.3693 32.88 9.35926 32.97C8.37926 33.06 7.82926 33.21 7.41926 33.43C6.51926 33.91 5.76926 34.68 5.29926 35.65C5.06926 36.1 4.91926 36.7 4.83926 37.74C4.75926 38.8 4.75926 40.16 4.75926 42.11V48.28C4.75926 49.43 4.75926 49.75 4.80926 49.99C5.02926 51.15 5.87926 51.99 6.88926 52.2C7.09926 52.25 7.37926 52.25 8.48926 52.25H9.58926C10.9793 52.25 12.2293 51.06 12.2293 49.43C12.2293 47.9 13.4393 46.54 15.0793 46.54Z" fill="#5856D6"/>
<path d="M9.58926 36.25C8.61926 36.25 7.83926 37.03 7.83926 38C7.83926 38.97 8.61926 39.75 9.58926 39.75H16.1693C17.1393 39.75 17.9193 38.97 17.9193 38C17.9193 37.03 17.1393 36.25 16.1693 36.25H9.58926Z" fill="#5856D6"/>
</svg>
